<?xml version="1.0" encoding="UTF-8" standalone="no"?>
<!DOCTYPE svg PUBLIC "-//W3C//DTD SVG 1.1//EN" "http://www.w3.org/Graphics/SVG/1.1/DTD/svg11.dtd">
<svg width="100%" height="100%" viewBox="0 0 4000 4000" version="1.1" xmlns="http://www.w3.org/2000/svg" xmlns:xlink="http://www.w3.org/1999/xlink" xml:space="preserve" xmlns:serif="http://www.serif.com/" style="fill-rule:evenodd;clip-rule:evenodd;stroke-linejoin:round;stroke-miterlimit:2;">
    <g>
        <path d="M1825.02,2791.13C1825.02,2791.13 1496.63,3114.42 1233.3,2977.99C843.851,2776.23 1027.48,2277.51 1141.31,2235.84C1195.23,2216.11 1232.59,2338.73 1298.56,2461.35C1384.67,2621.42 1519.54,2781.49 1803.66,2624.91L1825.02,2791.13Z" style="fill:rgb(249,155,40);fill-rule:nonzero;"/>
        <path d="M1816.59,2725.62L1825.01,2791.13C1825.01,2791.13 1496.63,3114.43 1233.3,2978C892.59,2801.48 990.503,2397.64 1096.55,2271.47C1037.47,2446.54 1042.65,2712.63 1302.01,2847C1486.83,2942.76 1703.7,2812.06 1816.59,2725.62Z" style="fill:white;fill-rule:nonzero;"/>
        <path d="M1152.23,2250.87C1150.51,2250.87 1148.81,2251.17 1147.14,2251.77C1100.04,2269.01 1025.2,2395.19 1015.11,2553.67C1008.39,2659.31 1028.81,2852.94 1241.1,2962.92C1471.45,3082.25 1761.8,2826.71 1807.09,2784.73L1789.95,2651.36C1684.16,2705.06 1589.52,2719.11 1508.36,2693.1C1367.29,2647.89 1292.6,2491.98 1238.06,2378.14C1206.76,2312.81 1177.08,2250.87 1152.23,2250.87ZM1374.56,3028.24C1320.85,3028.24 1270.84,3016.55 1225.49,2993.05C996.094,2874.21 973.999,2665.4 981.251,2551.51C991.812,2385.5 1071.01,2243.51 1135.48,2219.91C1190.26,2199.85 1224.86,2272.07 1268.66,2363.48C1323.42,2477.78 1391.58,2620.04 1518.72,2660.79C1596.21,2685.62 1689.32,2668.55 1795.47,2610.04C1800.39,2607.34 1806.33,2607.24 1811.34,2609.78C1816.34,2612.32 1819.77,2617.17 1820.49,2622.74L1841.85,2788.97C1842.53,2794.23 1840.7,2799.51 1836.92,2803.23C1833.5,2806.59 1751.85,2886.41 1636.14,2950.56C1542.94,3002.23 1454.65,3028.24 1374.56,3028.24Z" style="fill:rgb(57,0,117);fill-rule:nonzero;"/>
        <path d="M1224.23,2594.59C1166.24,2594.58 1129.45,2485.4 1127.09,2461.22C1122.52,2414.52 1144.45,2404.22 1161.74,2404.22C1166.18,2404.22 1170.31,2404.9 1173.61,2405.82C1193.68,2411.39 1211.61,2469.9 1245.63,2525.83C1265.49,2558.49 1275.81,2592.23 1226.39,2594.54C1225.67,2594.57 1224.95,2594.59 1224.23,2594.59Z" style="fill:rgb(251,195,126);fill-rule:nonzero;"/>
        <path d="M1486.73,2718.38C1392.55,2683.3 1330.13,2594.92 1282.59,2506.55C1221.37,2392.75 1184.79,2278.95 1136.74,2278.95C1133.01,2278.95 1129.23,2279.63 1125.35,2281.05C1115.63,2284.6 1105.42,2291.48 1095.09,2301.21C1113.25,2274.82 1131.69,2257.43 1147.14,2251.77C1148.81,2251.17 1150.51,2250.87 1152.23,2250.87C1177.08,2250.87 1206.76,2312.81 1238.06,2378.14C1290.84,2488.31 1362.49,2637.88 1494.92,2688.39C1492.11,2698.49 1489.38,2708.49 1486.73,2718.38Z" style="fill:rgb(252,205,148);fill-rule:nonzero;"/>
    </g>
    <g>
        <path d="M2728.41,3333.6L1409.95,3333.6C1409.95,3333.6 1405.58,2969.74 1574.52,2491.67C1606.13,2402.26 1643.82,2308.84 1688.73,2213.03C1702.93,2182.69 1717.86,2152.11 1733.59,2121.32L2404.72,2121.32C2415.95,2143.37 2426.82,2165.28 2437.28,2187.1C2478.58,2273.04 2514.02,2357.22 2544.45,2438.47C2733.1,2942.5 2728.41,3333.6 2728.41,3333.6Z" style="fill:rgb(249,155,40);fill-rule:nonzero;"/>
        <path d="M2236.31,2689.05C2141.88,2773.95 2169.91,3074.16 2169.91,3074.16L1980.62,3074.16C1980.62,3074.16 1987.86,2773.95 1893.48,2689.05C1725.53,2538.08 1526.49,2521.09 1611.68,2362.26L2518.11,2362.26C2561.61,2484.28 2404.27,2538.08 2236.31,2689.05Z" style="fill:white;fill-rule:nonzero;"/>
        <path d="M2728.39,3350.57L1409.93,3350.57C1400.64,3350.57 1393.08,3343.1 1392.96,3333.81C1392.9,3327.97 1391.71,3188.37 1431.15,2967.15C1467.49,2763.3 1546.85,2449.74 1718.49,2113.6C1722.76,2105.25 1732.98,2101.94 1741.32,2106.21C1749.66,2110.47 1752.97,2120.69 1748.72,2129.03C1579.17,2461.05 1500.7,2770.76 1464.73,2972.11C1433.44,3147.29 1427.99,3273.05 1427.08,3316.64L2711.25,3316.64C2710.33,3273.05 2704.88,3147.29 2673.59,2972.11C2637.62,2770.76 2559.15,2461.05 2389.6,2129.03C2385.35,2120.69 2388.66,2110.47 2397,2106.21C2405.36,2101.94 2415.57,2105.26 2419.83,2113.6C2591.47,2449.74 2670.83,2763.3 2707.17,2967.15C2746.61,3188.37 2745.43,3327.97 2745.36,3333.81C2745.24,3343.1 2737.68,3350.57 2728.39,3350.57Z" style="fill:rgb(57,0,117);fill-rule:nonzero;"/>
        <path d="M2962.71,3263.64C2892.49,3380.83 2830.58,3399.88 2816.9,3404.33C2776.71,3417.44 2680.14,3403.68 2680.14,3403.68C2680.14,3403.68 2411.04,3376.54 2210.27,3376.19L1932.07,3376.19C1925.91,3376.19 1919.71,3376.24 1913.46,3376.28C1714.48,3377.85 1458.18,3403.68 1458.18,3403.68C1458.18,3403.68 1361.61,3417.44 1321.42,3404.33C1307.74,3399.88 1245.83,3380.83 1175.61,3263.64C1089.19,3119.41 1129.25,3003.14 1184.05,2955.73C1260.25,2889.84 1331.82,2940.31 1382.11,3015.77C1390.19,2998.69 1403.65,2981.03 1419.86,2964.69C1450.05,2934.24 1489.72,2908.46 1521.58,2900.11C1609.62,2877.09 1698.71,2917.98 1746.16,3002.18L2392.16,3002.18C2439.61,2917.98 2528.7,2877.09 2616.75,2900.11C2665.73,2912.91 2733.1,2966.92 2756.21,3015.77C2806.5,2940.31 2878.07,2889.84 2954.27,2955.73C3009.07,3003.14 3049.13,3119.41 2962.71,3263.64Z" style="fill:rgb(249,155,40);fill-rule:nonzero;"/>
        <path d="M2962.73,3263.62C2892.48,3380.8 2830.58,3399.88 2816.92,3404.34C2776.7,3417.46 2680.17,3403.66 2680.17,3403.66C2680.17,3403.66 2573.17,3392.89 2443.77,3384.82C2367.93,3380.13 2284.47,3376.34 2210.26,3376.2L1932.07,3376.2C1925.89,3376.2 1919.71,3376.25 1913.45,3376.29C1844.37,3376.84 1768.36,3380.31 1698.6,3384.64C1567.4,3392.66 1458.2,3403.66 1458.2,3403.66C1458.2,3403.66 1361.62,3417.46 1321.4,3404.34C1307.74,3399.88 1245.83,3380.8 1175.63,3263.62C1089.2,3119.43 1129.24,3003.15 1184.06,2955.72C1260.26,2889.84 1331.82,2940.29 1382.09,3015.77C1390.2,2998.68 1403.64,2981.05 1419.87,2964.69C1506.98,2952.92 1495.17,3060.18 1588.18,3106.4C1638.82,3131.51 1704.06,3137.6 1755.23,3137.69C1803.12,3137.78 1838.74,3132.55 1838.74,3132.55C1838.74,3132.55 1819.57,3107.75 1796.58,3071.41C1783.78,3051.17 1769.75,3027.36 1757.22,3002.2L2381.1,3002.2C2369.28,3025.96 2356.12,3048.55 2343.85,3068.03C2319.96,3106.22 2299.58,3132.55 2299.58,3132.55C2299.58,3132.55 2337.45,3138.1 2387.59,3137.64C2438.04,3137.24 2500.99,3130.75 2550.13,3106.4C2643.15,3060.18 2631.33,2952.92 2718.45,2964.69C2734.68,2981.05 2748.11,2998.68 2756.23,3015.77C2806.5,2940.29 2878.06,2889.84 2954.25,2955.72C3009.08,3003.15 3049.12,3119.43 2962.73,3263.62Z" style="fill:white;fill-rule:nonzero;"/>
        <path d="M1373.07,3392.98C1366.57,3392.98 1360.13,3392.81 1353.81,3392.42C1346.36,3392.01 1339.23,3391.06 1332.65,3389.77C1329.61,3388.89 1326.73,3388.35 1323.04,3386.99C1319.74,3385.82 1316.52,3384.61 1313.33,3383.12C1300.47,3377.47 1288.18,3369.2 1276.6,3359.99C1265.02,3350.7 1254.09,3340.25 1243.98,3328.88C1223.52,3306.37 1205.73,3280.91 1189.82,3254.28C1174.32,3227.82 1161.49,3199.95 1153.09,3170.97C1147.64,3152.21 1144.14,3132.95 1142.99,3113.7C1150.84,3135.52 1161.57,3158.26 1175.63,3181.74C1245.83,3298.92 1307.74,3318 1321.4,3322.46C1326.99,3324.26 1333.66,3325.57 1341.01,3326.47C1348.31,3327.35 1355.62,3327.79 1362.87,3327.79C1413.54,3327.79 1462.43,3306.73 1498.59,3270.29C1522.13,3246.49 1554.73,3222.86 1592.87,3219.89C1596.62,3219.59 1600.42,3219.46 1604.27,3219.46C1620.27,3219.46 1637.14,3221.86 1654.64,3225.81C1655.8,3229.87 1656.99,3233.94 1658.2,3238.01C1657.65,3238.29 1657.1,3238.57 1656.55,3238.86C1651.43,3241.56 1646.44,3244.5 1641.57,3247.7C1631.88,3254.15 1622.65,3261.59 1614.43,3270.46C1606.19,3279.28 1599.05,3289.62 1593.92,3301.19C1588.83,3312.76 1586.05,3325.52 1585.71,3338.12C1585.66,3344.41 1586.02,3350.66 1586.98,3356.74L1587.77,3361.27C1587.93,3362.09 1587.98,3362.64 1588.23,3363.68C1588.55,3364.9 1588.9,3366.12 1589.28,3367.33C1590.24,3370.1 1591.48,3372.66 1592.88,3374.94C1559.98,3377.48 1527.1,3380.24 1494.24,3383.22L1470.35,3385.44L1458.24,3386.61L1446.16,3388.1C1430.68,3389.94 1415.09,3391.36 1399.6,3392.2C1390.72,3392.68 1381.84,3392.98 1373.07,3392.98Z" style="fill:rgb(195,178,213);fill-rule:nonzero;"/>
        <path d="M2765.25,3392.98C2756.49,3392.98 2747.6,3392.68 2738.72,3392.2C2723.23,3391.36 2707.64,3389.94 2692.16,3388.1L2680.08,3386.61L2667.97,3385.44L2644.08,3383.22C2614.79,3380.56 2585.48,3378.08 2556.17,3375.78C2557.78,3373.29 2559.21,3370.45 2560.29,3367.33C2560.67,3366.12 2561.02,3364.9 2561.34,3363.68C2561.59,3362.64 2561.64,3362.09 2561.8,3361.27L2562.58,3356.74C2563.55,3350.66 2563.9,3344.41 2563.86,3338.12C2563.52,3325.52 2560.74,3312.76 2555.65,3301.19C2550.52,3289.62 2543.37,3279.28 2535.14,3270.46C2526.92,3261.59 2517.69,3254.15 2508,3247.7C2503.13,3244.5 2498.14,3241.56 2493.02,3238.86C2492.47,3238.57 2491.92,3238.29 2491.37,3238.01C2492.39,3234.59 2493.38,3231.17 2494.37,3227.75C2514.58,3223.07 2533.83,3220.14 2552,3220.14C2556.49,3220.14 2560.92,3220.32 2565.28,3220.7C2585.44,3222.41 2611.95,3244.73 2634.4,3267.99C2670.98,3305.76 2720.89,3327.91 2773.15,3327.91C2776.48,3327.91 2779.8,3327.82 2783.14,3327.64C2796.09,3326.97 2807.9,3325.39 2816.92,3322.46C2830.58,3318 2892.48,3298.92 2962.73,3181.74C2976.78,3158.3 2987.49,3135.59 2995.33,3113.79C2994.17,3133.02 2990.68,3152.24 2985.23,3170.97C2976.83,3199.95 2964,3227.82 2948.5,3254.28C2932.59,3280.91 2914.8,3306.37 2894.34,3328.88C2884.23,3340.25 2873.3,3350.7 2861.72,3359.99C2850.14,3369.2 2837.85,3377.47 2825,3383.12C2821.8,3384.61 2818.58,3385.82 2815.28,3386.99C2811.59,3388.35 2808.71,3388.89 2805.67,3389.77C2799.09,3391.06 2791.96,3392.01 2784.51,3392.42C2778.19,3392.81 2771.75,3392.98 2765.25,3392.98Z" style="fill:rgb(195,178,213);fill-rule:nonzero;"/>
        <path d="M1395.64,3005.54C1398.23,3008.23 1399.87,3010.22 1401.76,3012.63C1403.49,3014.97 1405.24,3017.29 1406.73,3019.72C1409.91,3024.5 1412.56,3029.5 1415.1,3034.54C1420.11,3044.65 1423.71,3055.33 1426.96,3066.02C1430.15,3076.72 1432.66,3087.59 1434.57,3098.55C1436.39,3109.54 1437.63,3120.61 1437.81,3131.85C1437.84,3133.24 1436.72,3134.39 1435.33,3134.41C1434.46,3134.43 1433.68,3134 1433.22,3133.33L1433.18,3133.28C1426.86,3124.05 1421.33,3114.73 1415.62,3105.6L1399,3078.43C1393.47,3069.51 1387.76,3060.82 1382.61,3052C1380.05,3047.59 1377.47,3043.2 1375.08,3038.8L1371.54,3032.21C1370.49,3030.12 1369.17,3027.63 1368.57,3026L1367.51,3023.09C1364.31,3014.3 1368.84,3004.57 1377.63,3001.37C1384.12,2999 1391.14,3000.86 1395.64,3005.54Z" style="fill:rgb(57,0,117);fill-rule:nonzero;"/>
        <path d="M2769.75,3026C2769.16,3027.63 2767.84,3030.12 2766.78,3032.21L2763.24,3038.8C2760.85,3043.2 2758.28,3047.59 2755.71,3052C2750.56,3060.82 2744.85,3069.51 2739.33,3078.43L2722.7,3105.6C2716.99,3114.73 2711.46,3124.05 2705.14,3133.28L2705.11,3133.32C2704.33,3134.47 2702.76,3134.76 2701.6,3133.97C2700.88,3133.48 2700.5,3132.66 2700.51,3131.85C2700.69,3120.61 2701.93,3109.54 2703.75,3098.55C2705.66,3087.59 2708.17,3076.72 2711.37,3066.02C2714.62,3055.33 2718.21,3044.65 2723.23,3034.54C2725.76,3029.5 2728.41,3024.5 2731.59,3019.72C2733.09,3017.29 2734.84,3014.97 2736.56,3012.63C2738.45,3010.22 2740.09,3008.23 2742.68,3005.54C2749.17,2998.79 2759.9,2998.59 2766.64,3005.08C2771.62,3009.87 2773.03,3016.98 2770.82,3023.08L2769.75,3026Z" style="fill:rgb(57,0,117);fill-rule:nonzero;"/>
        <path d="M2618.2,2894.65C2634.46,2896.89 2649.82,2902.67 2664.43,2909.52C2671.72,2913.04 2678.78,2916.94 2685.73,2921.07C2692.61,2925.3 2699.26,2929.87 2705.84,2934.6C2718.89,2944.17 2731.05,2955.03 2742.32,2967.07C2753.36,2979.3 2763.8,2992.57 2771.7,3008.44L2741.96,3006.26C2760.03,2978.4 2781.5,2951.57 2810.73,2931.08C2825.44,2921.13 2842.28,2912.87 2861.01,2909.16C2879.68,2905.42 2899.77,2906.94 2917.51,2913.24C2926.37,2916.39 2934.68,2920.51 2942.48,2925.18C2950.14,2929.98 2957.38,2935.25 2964.01,2940.99C2977.59,2952.83 2988.93,2966.77 2998.25,2981.6L3004.69,2993.03C3006.97,2996.79 3008.42,3000.9 3010.31,3004.82C3014.17,3012.65 3016.63,3020.97 3019.5,3029.13C3024.25,3045.72 3027.78,3062.67 3028.9,3079.75C3031.6,3113.91 3027.2,3148.1 3017.85,3180.35C3008.48,3212.65 2994.38,3243.11 2977.64,3271.67C2960.83,3299.77 2941.96,3326.92 2919.49,3351.66C2908.4,3364.11 2896.22,3375.82 2882.93,3386.49C2869.57,3397.08 2855.2,3406.85 2838.84,3414.1C2834.8,3415.97 2830.55,3417.59 2826.34,3419.07C2822.53,3420.48 2817.62,3421.69 2812.97,3422.91C2803.91,3424.74 2795.19,3425.8 2786.71,3426.29C2769.71,3427.33 2753.24,3426.95 2736.86,3426.09C2720.5,3425.19 2704.31,3423.72 2688.12,3421.79L2676.45,3420.35L2664.75,3419.22L2641,3417.01C2577.63,3411.26 2514.15,3406.34 2450.65,3402.28C2387.16,3398.22 2323.63,3395.16 2260.2,3393.8C2228.51,3393.07 2196.84,3393.15 2164.86,3393.15L1973.47,3393.15C1941.48,3393.15 1909.81,3393.07 1878.13,3393.8C1814.69,3395.16 1751.16,3398.22 1687.67,3402.28C1624.18,3406.34 1560.69,3411.26 1497.32,3417.01L1473.57,3419.22L1461.87,3420.35L1450.2,3421.79C1434.01,3423.72 1417.82,3425.19 1401.45,3426.09C1385.08,3426.95 1368.61,3427.33 1351.61,3426.29C1343.13,3425.8 1334.41,3424.74 1325.36,3422.91C1320.7,3421.69 1315.79,3420.48 1311.98,3419.07C1307.77,3417.59 1303.52,3415.97 1299.48,3414.1C1283.12,3406.85 1268.75,3397.08 1255.4,3386.49C1242.1,3375.82 1229.92,3364.11 1218.83,3351.66C1196.37,3326.92 1177.49,3299.77 1160.68,3271.67C1143.94,3243.11 1129.85,3212.65 1120.48,3180.35C1111.12,3148.1 1106.73,3113.91 1109.42,3079.75C1109.7,3071.19 1111.46,3062.73 1112.74,3054.25C1113.25,3049.98 1114.6,3045.85 1115.57,3041.66C1116.69,3037.49 1117.52,3033.26 1118.91,3029.16C1121.83,3021.01 1124.31,3012.72 1128.2,3004.91C1130.1,3000.99 1131.57,2996.89 1133.85,2993.15L1140.33,2981.77C1149.69,2966.99 1161.07,2953.13 1174.7,2941.45C1181.36,2935.78 1188.6,2930.59 1196.26,2925.86C1204.05,2921.28 1212.32,2917.25 1221.13,2914.19C1238.78,2908.12 1258.61,2906.61 1277.08,2910.34C1295.61,2913.96 1312.37,2922.03 1327.05,2931.87C1356.29,2951.91 1378.73,2977.97 1397.25,3005.67L1365.65,3007.98C1367.72,3004.11 1369.68,3000.1 1371.9,2996.36C1374.26,2992.77 1376.47,2989.01 1378.98,2985.6C1383.9,2978.67 1389.16,2972.14 1394.77,2966.01C1405.89,2953.68 1418.17,2942.81 1431.21,2933.05C1437.83,2928.3 1444.58,2923.77 1451.52,2919.54C1458.53,2915.42 1465.71,2911.59 1473.1,2908.17C1487.93,2901.52 1503.65,2896.14 1520.12,2894.65C1523.28,2894.37 1526.06,2896.69 1526.35,2899.84C1526.57,2902.26 1525.25,2904.47 1523.21,2905.49L1522.99,2905.6C1509.59,2912.25 1497.14,2920.24 1485.26,2929.06C1479.26,2933.37 1473.49,2938.01 1467.84,2942.74C1462.11,2947.38 1456.65,2952.34 1451.28,2957.33C1440.44,2967.22 1430.41,2977.9 1421.28,2988.94C1412.26,3000.03 1404.23,3011.74 1398.56,3023.55C1394.19,3032.64 1383.28,3036.47 1374.19,3032.1C1371.19,3030.66 1368.71,3028.43 1366.96,3025.86C1350,3000.8 1330.85,2976.88 1307.51,2960.41C1295.85,2952.37 1283.34,2946.26 1270.5,2943.62C1257.64,2941.1 1244.64,2942.07 1232.09,2946.3C1225.83,2948.5 1219.7,2951.46 1213.74,2954.95C1207.84,2958.62 1202.07,2962.71 1196.58,2967.39C1185.97,2976.52 1176.92,2987.5 1169.18,2999.64L1163.84,3009.05C1161.91,3012.1 1160.74,3015.6 1159.14,3018.85C1155.85,3025.32 1153.83,3032.38 1151.32,3039.23C1150.13,3042.68 1149.47,3046.31 1148.5,3049.84C1147.69,3053.41 1146.48,3056.89 1146.08,3060.56C1145.03,3067.85 1143.43,3075.05 1143.24,3082.47C1140.93,3111.95 1144.68,3142.04 1153.09,3170.97C1161.49,3199.95 1174.32,3227.82 1189.82,3254.28C1205.73,3280.91 1223.52,3306.37 1243.98,3328.88C1254.09,3340.25 1265.02,3350.7 1276.6,3359.99C1288.18,3369.2 1300.47,3377.47 1313.33,3383.12C1316.52,3384.61 1319.74,3385.82 1323.04,3386.99C1326.73,3388.35 1329.61,3388.89 1332.65,3389.77C1339.23,3391.06 1346.36,3392.01 1353.81,3392.42C1368.65,3393.34 1384.13,3393.03 1399.6,3392.2C1415.09,3391.36 1430.68,3389.94 1446.16,3388.1L1458.24,3386.61L1470.35,3385.44L1494.24,3383.22C1557.94,3377.44 1621.67,3372.5 1685.52,3368.41C1749.36,3364.33 1813.3,3361.25 1877.43,3359.87C1906.52,3359.2 1935.65,3359.21 1964.54,3359.21L2173.79,3359.21C2202.67,3359.21 2231.79,3359.2 2260.89,3359.87C2325.02,3361.25 2388.97,3364.33 2452.8,3368.41C2516.65,3372.5 2580.38,3377.44 2644.08,3383.22L2667.97,3385.44L2680.08,3386.61L2692.16,3388.1C2707.64,3389.94 2723.23,3391.36 2738.72,3392.2C2754.19,3393.03 2769.67,3393.34 2784.51,3392.42C2791.96,3392.01 2799.09,3391.06 2805.67,3389.77C2808.71,3388.89 2811.59,3388.35 2815.28,3386.99C2818.58,3385.82 2821.8,3384.61 2825,3383.12C2837.85,3377.47 2850.14,3369.2 2861.72,3359.99C2873.3,3350.7 2884.23,3340.25 2894.34,3328.88C2914.8,3306.37 2932.59,3280.91 2948.5,3254.28C2964,3227.82 2976.83,3199.95 2985.23,3170.97C2993.64,3142.04 2997.4,3111.95 2995.08,3082.47C2994.89,3075.05 2993.29,3067.85 2992.24,3060.56C2991.82,3056.89 2990.6,3053.42 2989.77,3049.85C2988.79,3046.33 2988.11,3042.7 2986.9,3039.26C2984.36,3032.43 2982.31,3025.38 2978.99,3018.93C2977.38,3015.7 2976.19,3012.21 2974.26,3009.17L2968.88,2999.8C2961.11,2987.72 2952.01,2976.81 2941.35,2967.85C2935.85,2963.24 2930.06,2959.23 2924.17,2955.64C2918.21,2952.23 2912.12,2949.36 2905.91,2947.25C2893.46,2943.25 2880.72,2942.29 2868.06,2944.8C2855.41,2947.35 2842.98,2953.28 2831.35,2961.2C2819.74,2969.22 2808.75,2978.97 2798.69,2989.93C2788.57,3000.84 2779.17,3012.75 2770.47,3025.27L2770.19,3025.67C2764.82,3033.4 2754.2,3035.31 2746.48,3029.94C2743.91,3028.16 2741.96,3025.73 2740.73,3023.09C2735.18,3011.08 2727.38,2999.04 2718.27,2987.88C2709.29,2976.55 2699.13,2965.86 2688.32,2955.78C2682.9,2950.76 2677.34,2945.85 2671.56,2941.21C2665.84,2936.48 2659.96,2931.92 2653.85,2927.71C2641.75,2919.09 2628.94,2911.5 2615.33,2905.6L2615.15,2905.52C2612.27,2904.26 2610.95,2900.91 2612.2,2898.03C2613.24,2895.63 2615.73,2894.31 2618.2,2894.65Z" style="fill:rgb(57,0,117);fill-rule:nonzero;"/>
        <path d="M2155.23,3002.18L2131.05,3002.18C2143.84,2961.57 2157.73,2928.03 2168.03,2905.34C2160.69,2935.73 2158.12,2966.61 2155.55,2997.46C2155.44,2999.03 2155.33,3000.6 2155.23,3002.18ZM2011.82,3002.18L1994.34,3002.18C1994.23,3000.6 1994.13,2999.03 1994.02,2997.46C1992.25,2976.25 1990.49,2955.03 1987.17,2933.97C1995.02,2953.16 2003.65,2976.22 2011.82,3002.18Z" style="fill:rgb(195,178,213);fill-rule:nonzero;"/>
        <path d="M2155.23,3002.2L2131.04,3002.2C2131.04,3002.2 2131.05,3002.19 2131.05,3002.18L2155.23,3002.18L2155.23,3002.2ZM2011.83,3002.2L1994.34,3002.2L1994.34,3002.18L2011.82,3002.18C2011.82,3002.19 2011.83,3002.2 2011.83,3002.2Z" style="fill:rgb(191,108,63);fill-rule:nonzero;"/>
        <path d="M2178.29,3359.21L1971.28,3359.21C1973.34,3356.26 1975.22,3353.1 1976.87,3349.72C1977.59,3348.12 1978.38,3346.41 1978.98,3344.89L1980.42,3340.69C1981.33,3337.91 1982.41,3335.08 1983.16,3332.32C1984.56,3326.83 1986.23,3321.27 1987.2,3315.85C1991.75,3294.04 1994,3272.61 1995.62,3251.24C1998.73,3208.52 1998.83,3166.19 1998.1,3123.93C1997,3083.3 1996.95,3042.68 1994.34,3002.2L2011.83,3002.2C2036.9,3081.87 2057.77,3188.77 2038.97,3294.32L2103.85,3294.32C2085.05,3188.82 2105.93,3081.87 2131.04,3002.2L2155.23,3002.2C2152.62,3042.68 2152.57,3083.3 2151.47,3123.93C2150.74,3166.19 2150.84,3208.52 2153.95,3251.24C2155.56,3272.61 2157.82,3294.04 2162.37,3315.85C2163.34,3321.27 2165.01,3326.83 2166.41,3332.32C2167.16,3335.08 2168.24,3337.91 2169.15,3340.69L2170.59,3344.89C2171.19,3346.41 2171.98,3348.12 2172.7,3349.72C2174.35,3353.1 2176.23,3356.26 2178.29,3359.21Z" style="fill:rgb(195,178,213);fill-rule:nonzero;"/>
        <path d="M2194.32,3376.2L1955.25,3376.2C1961.06,3371.49 1966.62,3365.88 1971.28,3359.21L2178.29,3359.21C2182.95,3365.88 2188.51,3371.49 2194.32,3376.2Z" style="fill:rgb(57,0,117);fill-rule:nonzero;"/>
        <path d="M2544.86,3359.79C2532.5,3418.14 2220.99,3427.56 2186.5,3339.05C2163.59,3280.21 2166.12,3134.85 2172.39,3022.04L2172.43,3021.99C2177.03,2938.76 2183.7,2873.2 2183.7,2873.2L2546.93,2720.81C2552.16,2933.76 2502.29,3136.79 2480.61,3214.29C2474.65,3235.53 2470.82,3247.34 2470.82,3247.34C2470.82,3247.34 2561.72,3280.08 2544.86,3359.79Z" style="fill:rgb(249,155,40);fill-rule:nonzero;"/>
        <path d="M2544.86,3359.79C2532.5,3418.14 2220.99,3427.56 2186.5,3339.05C2163.59,3280.21 2166.12,3134.85 2172.39,3022.04L2172.43,3021.99C2172.43,3021.99 2179.33,3142.92 2261.43,3181.06C2326.18,3211.14 2397.78,3197.84 2480.61,3214.29C2474.65,3235.53 2470.82,3247.34 2470.82,3247.34C2470.82,3247.34 2561.72,3280.08 2544.86,3359.79Z" style="fill:white;fill-rule:nonzero;"/>
        <path d="M2189.33,2873.77C2196.72,2916.43 2193.78,2958.01 2192.01,2999.72C2189.7,3041.37 2185.95,3082.96 2185.4,3124.58C2184.68,3166.16 2184.8,3207.78 2187.79,3248.73C2189.32,3269.15 2191.53,3289.51 2195.55,3308.76C2196.42,3313.67 2197.83,3318.16 2198.99,3322.83C2199.6,3325.13 2200.44,3327.19 2201.15,3329.39L2202.24,3332.64L2203.28,3335.01C2206.23,3341.09 2211.6,3347.01 2218.6,3352.08C2232.63,3362.35 2251.26,3369.36 2270.21,3374.46C2289.31,3379.57 2309.28,3382.83 2329.42,3384.9C2369.71,3388.9 2410.97,3388.56 2450.93,3383.31C2470.76,3380.59 2490.7,3376.61 2507.89,3369.81C2512.11,3368.09 2516.13,3366.19 2519.56,3364.13C2522.98,3362.1 2525.78,3359.77 2527.12,3358.08C2527.87,3357.22 2528.05,3356.65 2528.16,3356.41L2528.22,3356.29C2528.29,3356.06 2528.39,3355.3 2528.48,3354.84L2529.04,3351.62C2529.73,3347.34 2529.93,3343.11 2529.94,3338.91C2529.67,3330.56 2527.91,3322.48 2524.58,3314.84C2521.19,3307.23 2516.34,3300.05 2510.27,3293.55C2504.24,3287.02 2497.06,3281.19 2489.31,3276.03C2485.41,3273.46 2481.36,3271.08 2477.22,3268.89C2475.14,3267.81 2473.05,3266.76 2470.95,3265.8C2468.96,3264.86 2466.51,3263.83 2465.08,3263.29C2456.53,3260.07 2452.06,3250.71 2454.69,3242.09C2467.49,3200.63 2478.42,3157.46 2487.92,3114.5C2497.51,3071.43 2505.4,3027.98 2511.92,2984.37C2515.39,2962.59 2517.87,2940.69 2520.59,2918.82C2521.81,2907.87 2522.73,2896.9 2523.82,2885.94L2525.39,2869.49C2525.81,2864 2526.04,2858.51 2526.37,2853.01L2527.56,2820.02C2527.62,2809.03 2528.04,2798.06 2528.86,2787.09C2529.41,2781.61 2529.84,2776.12 2530.51,2770.63C2530.96,2765.15 2531.65,2759.66 2532.53,2754.16C2533.43,2748.66 2534.49,2743.15 2535.95,2737.61C2537.33,2732.08 2538.96,2726.53 2541.27,2720.94L2541.36,2720.73C2542.64,2717.62 2546.2,2716.14 2549.3,2717.42C2550.83,2718.05 2551.98,2719.25 2552.58,2720.66C2554.94,2726.19 2556.63,2731.76 2558.06,2737.36C2559.58,2742.95 2560.69,2748.56 2561.64,2754.19C2562.58,2759.82 2563.32,2765.45 2563.82,2771.1C2564.22,2776.73 2564.23,2782.36 2564.44,2788C2564.54,2799.28 2564.25,2810.55 2563.6,2821.79L2560.46,2855.42L2559.21,2872.25L2557.61,2889.03C2556.5,2900.21 2555.56,2911.42 2554.31,2922.59C2551.55,2944.88 2549.01,2967.21 2545.48,2989.39C2538.84,3033.8 2530.81,3077.99 2521.06,3121.81C2511.32,3165.75 2500.43,3208.96 2486.97,3252.56L2476.59,3231.36C2480.05,3232.67 2482.42,3233.72 2485.18,3234.99C2487.85,3236.22 2490.44,3237.51 2493.02,3238.86C2498.14,3241.56 2503.13,3244.5 2508,3247.7C2517.69,3254.15 2526.92,3261.59 2535.14,3270.46C2543.37,3279.28 2550.52,3289.62 2555.65,3301.19C2560.74,3312.76 2563.52,3325.52 2563.86,3338.12C2563.9,3344.41 2563.55,3350.66 2562.58,3356.74L2561.8,3361.27C2561.64,3362.09 2561.59,3362.64 2561.34,3363.68C2561.02,3364.9 2560.67,3366.12 2560.29,3367.33C2558.67,3372.02 2556.23,3376.09 2553.63,3379.26C2548.35,3385.73 2542.63,3389.79 2537.11,3393.17C2531.55,3396.51 2526.04,3399.05 2520.56,3401.29C2498.67,3409.87 2477.09,3413.89 2455.47,3416.94C2412.27,3422.59 2369.1,3422.91 2325.96,3418.66C2304.41,3416.44 2282.85,3412.95 2261.43,3407.24C2240.09,3401.35 2218.52,3393.85 2198.47,3379.4C2188.59,3372.17 2178.96,3362.56 2172.7,3349.72C2171.98,3348.12 2171.19,3346.41 2170.59,3344.89L2169.15,3340.69C2168.24,3337.91 2167.16,3335.08 2166.41,3332.32C2165.01,3326.83 2163.34,3321.27 2162.37,3315.85C2157.82,3294.04 2155.56,3272.61 2153.95,3251.24C2150.84,3208.52 2150.74,3166.19 2151.47,3123.93C2152.61,3081.72 2152.62,3039.5 2155.55,2997.46C2159.04,2955.47 2162.55,2913.43 2178.07,2872.62C2179.22,2869.6 2182.61,2868.08 2185.63,2869.23C2187.63,2869.99 2188.97,2871.73 2189.31,2873.7L2189.33,2873.77Z" style="fill:rgb(57,0,117);fill-rule:nonzero;"/>
        <path d="M2897.57,3200.89C2883.02,3233.6 2850.55,3250.91 2825.05,3239.57C2799.55,3228.22 2790.68,3192.51 2805.23,3159.81C2819.78,3127.1 2852.25,3109.79 2877.75,3121.13C2903.24,3132.48 2912.12,3168.19 2897.57,3200.89Z" style="fill:rgb(255,108,108);fill-rule:nonzero;"/>
        <path d="M2848.29,3085.35C2841.71,3102.31 2824.58,3111.49 2810.01,3105.84C2795.44,3100.2 2788.96,3081.87 2795.53,3064.91C2802.1,3047.94 2819.24,3038.77 2833.81,3044.41C2848.38,3050.06 2854.86,3068.39 2848.29,3085.35Z" style="fill:rgb(255,108,108);fill-rule:nonzero;"/>
        <path d="M2929.06,3068.48C2923.11,3087.47 2905.04,3098.71 2888.7,3093.59C2872.35,3088.47 2863.92,3068.93 2869.87,3049.94C2875.82,3030.96 2893.89,3019.71 2910.23,3024.83C2926.58,3029.95 2935.01,3049.49 2929.06,3068.48Z" style="fill:rgb(255,108,108);fill-rule:nonzero;"/>
        <path d="M2954.6,3126.54C2949.83,3138.87 2937.04,3145.4 2926.04,3141.13C2915.04,3136.87 2909.99,3123.43 2914.76,3111.11C2919.54,3098.79 2932.32,3092.25 2943.33,3096.52C2954.33,3100.78 2959.37,3114.22 2954.6,3126.54Z" style="fill:rgb(255,108,108);fill-rule:nonzero;"/>
        <path d="M1236.13,3195.59C1250.68,3228.3 1283.15,3245.61 1308.65,3234.27C1334.15,3222.92 1343.02,3187.21 1328.47,3154.5C1313.92,3121.8 1281.45,3104.48 1255.95,3115.83C1230.45,3127.17 1221.58,3162.88 1236.13,3195.59Z" style="fill:rgb(255,108,108);fill-rule:nonzero;"/>
        <path d="M1285.41,3080.05C1291.98,3097.01 1309.12,3106.19 1323.69,3100.54C1338.26,3094.9 1344.74,3076.57 1338.17,3059.61C1331.59,3042.64 1314.46,3033.47 1299.89,3039.11C1285.32,3044.76 1278.84,3063.08 1285.41,3080.05Z" style="fill:rgb(255,108,108);fill-rule:nonzero;"/>
        <path d="M1204.64,3063.18C1210.59,3082.17 1228.66,3093.41 1245,3088.29C1261.34,3083.17 1269.77,3063.63 1263.83,3044.64C1257.88,3025.65 1239.81,3014.41 1223.46,3019.53C1207.12,3024.65 1198.69,3044.19 1204.64,3063.18Z" style="fill:rgb(255,108,108);fill-rule:nonzero;"/>
        <path d="M1179.1,3121.24C1183.87,3133.56 1196.66,3140.1 1207.66,3135.83C1218.66,3131.57 1223.71,3118.13 1218.94,3105.81C1214.16,3093.49 1201.37,3086.95 1190.37,3091.22C1179.37,3095.48 1174.32,3108.92 1179.1,3121.24Z" style="fill:rgb(255,108,108);fill-rule:nonzero;"/>
        <path d="M1963.04,3339.05C1928.6,3427.56 1617.09,3418.14 1604.73,3359.79C1587.87,3280.08 1678.72,3247.34 1678.72,3247.34C1678.72,3247.34 1674.98,3235.85 1669.21,3215.15C1647.65,3138.32 1597.38,2934.52 1602.66,2720.81L1965.88,2873.2C1965.88,2873.2 1973.86,2951.61 1978.42,3045.89C1983.69,3154.55 1984.37,3284.27 1963.04,3339.05Z" style="fill:rgb(249,155,40);fill-rule:nonzero;"/>
        <path d="M1963.04,3339.05C1928.6,3427.56 1617.09,3418.14 1604.73,3359.79C1587.87,3280.08 1678.72,3247.34 1678.72,3247.34C1678.72,3247.34 1674.98,3235.85 1669.21,3215.15C1753.79,3197.39 1826.7,3211.63 1892.53,3181.06C1951.68,3153.56 1971.79,3083.13 1978.42,3045.89C1983.69,3154.55 1984.37,3284.27 1963.04,3339.05Z" style="fill:white;fill-rule:nonzero;"/>
        <path d="M1971.49,2872.62C1987.02,2913.43 1990.52,2955.47 1994.02,2997.46C1996.95,3039.5 1996.96,3081.72 1998.1,3123.93C1998.83,3166.19 1998.73,3208.52 1995.62,3251.24C1994,3272.61 1991.75,3294.04 1987.2,3315.85C1986.23,3321.27 1984.56,3326.83 1983.16,3332.32C1982.41,3335.08 1981.33,3337.91 1980.42,3340.69L1978.98,3344.89C1978.38,3346.41 1977.59,3348.12 1976.87,3349.72C1970.61,3362.56 1960.98,3372.17 1951.1,3379.4C1931.05,3393.85 1909.48,3401.35 1888.14,3407.24C1866.71,3412.95 1845.16,3416.44 1823.6,3418.66C1780.47,3422.91 1737.3,3422.59 1694.1,3416.94C1672.48,3413.89 1650.9,3409.87 1629.01,3401.29C1623.53,3399.05 1618.02,3396.51 1612.46,3393.17C1606.94,3389.79 1601.21,3385.73 1595.94,3379.26C1593.33,3376.09 1590.9,3372.02 1589.28,3367.33C1588.9,3366.12 1588.55,3364.9 1588.23,3363.68C1587.98,3362.64 1587.93,3362.09 1587.77,3361.27L1586.98,3356.74C1586.02,3350.66 1585.66,3344.41 1585.71,3338.12C1586.05,3325.52 1588.83,3312.76 1593.92,3301.19C1599.05,3289.62 1606.19,3279.28 1614.43,3270.46C1622.65,3261.59 1631.88,3254.15 1641.57,3247.7C1646.44,3244.5 1651.43,3241.56 1656.55,3238.86C1659.13,3237.51 1661.72,3236.22 1664.38,3234.99C1667.15,3233.72 1669.51,3232.67 1672.98,3231.36L1662.6,3252.56C1649.14,3208.96 1638.25,3165.75 1628.51,3121.81C1618.75,3077.99 1610.73,3033.8 1604.09,2989.39C1600.56,2967.21 1598.02,2944.88 1595.25,2922.59C1594.01,2911.42 1593.06,2900.21 1591.96,2889.03L1590.35,2872.25L1589.11,2855.42L1585.97,2821.79C1585.32,2810.55 1585.02,2799.28 1585.13,2788C1585.34,2782.36 1585.35,2776.73 1585.74,2771.1C1586.25,2765.45 1586.99,2759.82 1587.93,2754.19C1588.88,2748.56 1589.99,2742.95 1591.51,2737.36C1592.94,2731.76 1594.63,2726.19 1596.99,2720.66C1598.31,2717.57 1601.88,2716.13 1604.97,2717.45C1606.49,2718.1 1607.61,2719.3 1608.2,2720.71L1608.3,2720.94C1610.6,2726.53 1612.24,2732.08 1613.62,2737.61C1615.08,2743.15 1616.14,2748.66 1617.03,2754.16C1617.92,2759.66 1618.6,2765.15 1619.06,2770.63C1619.73,2776.12 1620.16,2781.61 1620.71,2787.09C1621.52,2798.06 1621.95,2809.03 1622,2820.02L1623.19,2853.01C1623.53,2858.51 1623.76,2864 1624.17,2869.49L1625.75,2885.94C1626.84,2896.9 1627.76,2907.87 1628.98,2918.82C1631.7,2940.69 1634.18,2962.59 1637.65,2984.37C1644.17,3027.98 1652.06,3071.43 1661.65,3114.5C1671.15,3157.46 1682.08,3200.63 1694.88,3242.09C1697.57,3250.82 1692.92,3260.09 1684.49,3263.29C1683.05,3263.83 1680.61,3264.86 1678.62,3265.8C1676.52,3266.76 1674.43,3267.81 1672.35,3268.89C1668.21,3271.08 1664.16,3273.46 1660.26,3276.03C1652.51,3281.19 1645.33,3287.02 1639.3,3293.55C1633.23,3300.05 1628.37,3307.23 1624.98,3314.84C1621.65,3322.48 1619.9,3330.56 1619.63,3338.91C1619.64,3343.11 1619.84,3347.34 1620.53,3351.62L1621.09,3354.84C1621.17,3355.3 1621.28,3356.06 1621.35,3356.29L1621.41,3356.41C1621.52,3356.65 1621.7,3357.22 1622.45,3358.08C1623.79,3359.77 1626.59,3362.1 1630.01,3364.13C1633.44,3366.19 1637.46,3368.09 1641.68,3369.81C1658.87,3376.61 1678.81,3380.59 1698.64,3383.31C1738.6,3388.56 1779.86,3388.9 1820.15,3384.9C1840.29,3382.83 1860.26,3379.57 1879.35,3374.46C1898.31,3369.36 1916.94,3362.35 1930.97,3352.08C1937.97,3347.01 1943.34,3341.09 1946.29,3335.01L1947.33,3332.64L1948.42,3329.39C1949.12,3327.19 1949.96,3325.13 1950.58,3322.83C1951.73,3318.16 1953.14,3313.67 1954.02,3308.76C1958.04,3289.51 1960.25,3269.15 1961.78,3248.73C1964.77,3207.78 1964.9,3166.16 1964.17,3124.58C1963.62,3082.96 1959.86,3041.37 1957.56,2999.72C1955.79,2958.01 1952.85,2916.43 1960.24,2873.77L1960.25,2873.71C1960.81,2870.52 1963.84,2868.38 1967.02,2868.94C1969.13,2869.3 1970.78,2870.76 1971.49,2872.62Z" style="fill:rgb(57,0,117);fill-rule:nonzero;"/>
        <path d="M1942.59,3137.99C1938.91,3089.69 1930.22,3040.99 1935.64,2989.34C1939.45,2953.1 1946.03,2919.17 1957.75,2891.31C1953.64,2927.87 1956.03,2963.75 1957.56,2999.72C1959.39,3032.82 1962.14,3065.87 1963.46,3098.94C1958.17,3112.11 1951.36,3125.55 1942.59,3137.99Z" style="fill:rgb(201,116,59);fill-rule:nonzero;"/>
        <path d="M1765.62,3387.61C1743.15,3387.61 1720.7,3386.21 1698.64,3383.31C1678.81,3380.59 1658.87,3376.61 1641.68,3369.81C1637.46,3368.09 1633.44,3366.19 1630.01,3364.13C1626.59,3362.1 1623.79,3359.77 1622.45,3358.08C1621.7,3357.22 1621.52,3356.65 1621.41,3356.41L1621.35,3356.29C1621.28,3356.06 1621.17,3355.3 1621.09,3354.84L1620.53,3351.62C1619.84,3347.34 1619.64,3343.11 1619.63,3338.91C1619.65,3338.4 1619.67,3337.89 1619.7,3337.39C1647.29,3343.94 1681.81,3347.39 1717.62,3347.39C1804,3347.39 1897.91,3327.33 1920.29,3282.49C1944.95,3233.07 1946.22,3185.73 1942.59,3137.99C1951.36,3125.55 1958.17,3112.11 1963.46,3098.94C1963.81,3107.48 1964.05,3116.03 1964.17,3124.58C1964.9,3166.16 1964.77,3207.78 1961.78,3248.73C1960.25,3269.15 1958.04,3289.51 1954.02,3308.76C1953.14,3313.67 1951.73,3318.16 1950.58,3322.83C1949.96,3325.13 1949.12,3327.19 1948.42,3329.39L1947.33,3332.64L1946.29,3335.01C1943.34,3341.09 1937.97,3347.01 1930.97,3352.08C1916.94,3362.35 1898.31,3369.36 1879.35,3374.46C1860.26,3379.57 1840.29,3382.83 1820.15,3384.9C1802.1,3386.69 1783.85,3387.61 1765.62,3387.61Z" style="fill:rgb(205,191,220);fill-rule:nonzero;"/>
        <path d="M1765.88,3404.57C1685.7,3404.57 1610.68,3387.83 1604.74,3359.77C1602.71,3350.06 1602.24,3341.07 1603,3332.76C1608.22,3334.44 1613.8,3335.98 1619.7,3337.39C1619.67,3337.89 1619.65,3338.4 1619.63,3338.91C1619.64,3343.11 1619.84,3347.34 1620.53,3351.62L1621.09,3354.84C1621.17,3355.3 1621.28,3356.06 1621.35,3356.29L1621.41,3356.41C1621.52,3356.65 1621.7,3357.22 1622.45,3358.08C1623.79,3359.77 1626.59,3362.1 1630.01,3364.13C1633.44,3366.19 1637.46,3368.09 1641.68,3369.81C1658.87,3376.61 1678.81,3380.59 1698.64,3383.31C1720.7,3386.21 1743.15,3387.61 1765.62,3387.61C1783.85,3387.61 1802.1,3386.69 1820.15,3384.9C1840.29,3382.83 1860.26,3379.57 1879.35,3374.46C1898.31,3369.36 1916.94,3362.35 1930.97,3352.08C1937.97,3347.01 1943.34,3341.09 1946.29,3335.01L1947.33,3332.64L1948.42,3329.39C1949.12,3327.19 1949.96,3325.13 1950.58,3322.83C1951.73,3318.16 1953.14,3313.67 1954.02,3308.76C1958.04,3289.51 1960.25,3269.15 1961.78,3248.73C1964.77,3207.78 1964.9,3166.16 1964.17,3124.58C1964.05,3116.03 1963.81,3107.48 1963.46,3098.94C1962.14,3065.87 1959.39,3032.82 1957.56,2999.72C1956.03,2963.75 1953.64,2927.87 1957.75,2891.31C1960.25,2885.37 1962.98,2879.7 1965.97,2874.35C1966.99,2884.31 1974.2,2958.25 1978.4,3045.88C1983.7,3154.56 1984.38,3284.27 1963.05,3339.03C1945.16,3385.01 1852.51,3404.57 1765.88,3404.57Z" style="fill:rgb(57,0,117);fill-rule:nonzero;"/>
        <path d="M2207.62,3132.45C2198.44,3118.22 2191.62,3102.95 2186.57,3088.45C2188,3058.88 2190.37,3029.32 2192.01,2999.72C2193.54,2963.53 2195.96,2927.44 2191.74,2890.66C2203.64,2918.64 2210.29,2952.82 2214.13,2989.34C2219.35,3039.02 2211.5,3085.96 2207.62,3132.45Z" style="fill:rgb(201,116,59);fill-rule:nonzero;"/>
        <path d="M2383.95,3387.61C2365.72,3387.61 2347.47,3386.69 2329.42,3384.9C2309.28,3382.83 2289.31,3379.57 2270.21,3374.46C2251.26,3369.36 2232.63,3362.35 2218.6,3352.08C2211.6,3347.01 2206.23,3341.09 2203.28,3335.01L2202.24,3332.64L2201.15,3329.39C2200.44,3327.19 2199.6,3325.13 2198.99,3322.83C2197.83,3318.16 2196.42,3313.67 2195.55,3308.76C2191.53,3289.51 2189.32,3269.15 2187.79,3248.73C2184.8,3207.78 2184.68,3166.16 2185.4,3124.58C2185.56,3112.54 2185.99,3100.5 2186.57,3088.45C2191.62,3102.95 2198.44,3118.22 2207.62,3132.45C2203.48,3182.06 2203.86,3231.16 2229.48,3282.49C2251.86,3327.33 2345.77,3347.39 2432.15,3347.39C2467.87,3347.39 2502.31,3343.96 2529.88,3337.43C2529.9,3337.92 2529.92,3338.42 2529.94,3338.91C2529.93,3343.11 2529.73,3347.34 2529.04,3351.62L2528.48,3354.84C2528.39,3355.3 2528.29,3356.06 2528.22,3356.29L2528.16,3356.41C2528.05,3356.65 2527.87,3357.22 2527.12,3358.08C2525.78,3359.77 2522.98,3362.1 2519.56,3364.13C2516.13,3366.19 2512.11,3368.09 2507.89,3369.81C2490.7,3376.61 2470.76,3380.59 2450.93,3383.31C2428.87,3386.21 2406.42,3387.61 2383.95,3387.61Z" style="fill:rgb(205,191,220);fill-rule:nonzero;"/>
        <path d="M2383.89,3404.57C2297.26,3404.57 2204.61,3385.01 2186.72,3339.03C2165.39,3284.27 2166.07,3154.56 2171.37,3045.88C2175.57,2958.25 2182.78,2884.31 2183.8,2874.35C2186.68,2879.5 2189.32,2884.95 2191.74,2890.66C2195.96,2927.44 2193.54,2963.53 2192.01,2999.72C2190.37,3029.32 2188,3058.88 2186.57,3088.45C2185.99,3100.5 2185.56,3112.54 2185.4,3124.58C2184.68,3166.16 2184.8,3207.78 2187.79,3248.73C2189.32,3269.15 2191.53,3289.51 2195.55,3308.76C2196.42,3313.67 2197.83,3318.16 2198.99,3322.83C2199.6,3325.13 2200.44,3327.19 2201.15,3329.39L2202.24,3332.64L2203.28,3335.01C2206.23,3341.09 2211.6,3347.01 2218.6,3352.08C2232.63,3362.35 2251.26,3369.36 2270.21,3374.46C2289.31,3379.57 2309.28,3382.83 2329.42,3384.9C2347.47,3386.69 2365.72,3387.61 2383.95,3387.61C2406.42,3387.61 2428.87,3386.21 2450.93,3383.31C2470.76,3380.59 2490.7,3376.61 2507.89,3369.81C2512.11,3368.09 2516.13,3366.19 2519.56,3364.13C2522.98,3362.1 2525.78,3359.77 2527.12,3358.08C2527.87,3357.22 2528.05,3356.65 2528.16,3356.41L2528.22,3356.29C2528.29,3356.06 2528.39,3355.3 2528.48,3354.84L2529.04,3351.62C2529.73,3347.34 2529.93,3343.11 2529.94,3338.91C2529.92,3338.42 2529.9,3337.92 2529.88,3337.43C2535.85,3336.02 2541.5,3334.46 2546.77,3332.76C2547.53,3341.07 2547.06,3350.06 2545.03,3359.77C2539.09,3387.83 2464.07,3404.57 2383.89,3404.57Z" style="fill:rgb(57,0,117);fill-rule:nonzero;"/>
        <path d="M1803.72,3290.46C1805.11,3301.66 1805.78,3311.87 1806.57,3321.74C1807.35,3331.56 1808.02,3340.94 1809.76,3349.6C1811.49,3358.23 1814.14,3366.02 1817.79,3372.05C1819.53,3375.13 1821.66,3377.69 1823.82,3380.14C1826.15,3382.45 1828.68,3384.56 1831.51,3386.74L1832.88,3387.79C1840.3,3393.5 1841.68,3404.15 1835.97,3411.56C1831,3418.01 1822.31,3419.89 1815.25,3416.52C1809.21,3413.64 1803.48,3409.68 1798.59,3404.76C1793.68,3399.85 1789.9,3393.99 1786.91,3388.04C1781.11,3375.92 1779.51,3363.3 1779.81,3351.64C1780.21,3339.94 1782.31,3328.85 1786.29,3318.53C1788.27,3313.38 1790.63,3308.41 1793.55,3303.7C1796.37,3298.98 1799.64,3294.46 1803.72,3290.46Z" style="fill:rgb(57,0,117);fill-rule:nonzero;"/>
        <path d="M1704.95,3287.32C1703.48,3293.19 1703.17,3298.53 1702.82,3303.9L1702.59,3311.88L1702.63,3319.76C1702.78,3330.17 1703,3340.4 1704.27,3350.19C1705.42,3359.89 1707.55,3369.44 1710.78,3376.27C1712.25,3379.73 1714.18,3382.16 1715.42,3383.33C1716.8,3384.43 1717.24,3384.94 1719.31,3385.62L1722.58,3386.7C1731.4,3389.61 1736.2,3399.14 1733.28,3407.96C1730.99,3414.91 1724.58,3419.35 1717.67,3419.52C1708.73,3419.71 1698.45,3415.75 1691.73,3409.43C1684.73,3403.23 1681.06,3395.84 1678.48,3389.13C1673.69,3375.41 1673.38,3362.7 1674.25,3350.49C1675.29,3338.29 1677.84,3326.52 1682.56,3315.43C1683.71,3312.66 1685.08,3309.95 1686.56,3307.31C1688.01,3304.66 1689.61,3302.07 1691.45,3299.62C1695.01,3294.74 1699.46,3290.01 1704.95,3287.32Z" style="fill:rgb(57,0,117);fill-rule:nonzero;"/>
        <path d="M2349.9,3290.46C2353.99,3294.46 2357.26,3298.98 2360.08,3303.7C2363,3308.41 2365.36,3313.38 2367.33,3318.53C2371.31,3328.85 2373.41,3339.94 2373.81,3351.64C2374.11,3363.3 2372.51,3375.92 2366.71,3388.04C2363.72,3393.99 2359.94,3399.85 2355.03,3404.76C2350.15,3409.68 2344.41,3413.64 2338.37,3416.52C2329.92,3420.55 2319.81,3416.96 2315.78,3408.51C2312.28,3401.17 2314.54,3392.56 2320.73,3387.8L2322.11,3386.74C2324.94,3384.56 2327.48,3382.45 2329.8,3380.14C2331.97,3377.69 2334.09,3375.13 2335.83,3372.05C2339.49,3366.02 2342.13,3358.23 2343.87,3349.6C2345.61,3340.94 2346.28,3331.56 2347.05,3321.74C2347.85,3311.87 2348.51,3301.66 2349.9,3290.46Z" style="fill:rgb(57,0,117);fill-rule:nonzero;"/>
        <path d="M2448.67,3287.32C2454.16,3290.01 2458.61,3294.74 2462.17,3299.62C2464.02,3302.07 2465.62,3304.66 2467.07,3307.31C2468.55,3309.95 2469.91,3312.66 2471.07,3315.43C2475.79,3326.52 2478.33,3338.29 2479.37,3350.49C2480.24,3362.7 2479.94,3375.41 2475.14,3389.13C2472.57,3395.84 2468.89,3403.23 2461.9,3409.43C2455.18,3415.75 2444.9,3419.71 2435.96,3419.52C2426.66,3419.31 2419.29,3411.61 2419.5,3402.32C2419.66,3395 2424.45,3388.89 2431.02,3386.7L2434.31,3385.62C2436.38,3384.94 2436.82,3384.43 2438.21,3383.33C2439.45,3382.16 2441.38,3379.73 2442.84,3376.27C2446.08,3369.44 2448.21,3359.89 2449.36,3350.19C2450.63,3340.4 2450.84,3330.17 2450.99,3319.76L2451.04,3311.88L2450.8,3303.9C2450.46,3298.53 2450.14,3293.19 2448.67,3287.32Z" style="fill:rgb(57,0,117);fill-rule:nonzero;"/>
        <path d="M1589.77,2500.08C1584.64,2497.31 1579.56,2494.5 1574.52,2491.67C1576.82,2485.18 1579.14,2478.67 1581.5,2472.14C1585.92,2476.22 1590.67,2479.98 1595.71,2483.37C1593.71,2488.95 1591.73,2494.54 1589.77,2500.08Z" style="fill:rgb(57,0,117);fill-rule:nonzero;"/>
        <path d="M2150.69,2589.3C2147.81,2589.3 2144.92,2589.29 2142,2589.26C2144.9,2589.29 2147.8,2589.3 2150.67,2589.3C2171.57,2589.3 2191.68,2588.69 2210.94,2587.59C2228.18,2586.6 2244.76,2585.2 2260.67,2583.48L2260.68,2583.48C2226.98,2587.13 2190.3,2589.3 2150.69,2589.3Z" style="fill:rgb(153,124,184);fill-rule:nonzero;"/>
        <path d="M2210.94,2587.59C2228.18,2586.6 2244.76,2585.2 2260.67,2583.47L2260.67,2583.48C2244.76,2585.2 2228.18,2586.6 2210.94,2587.59Z" style="fill:rgb(191,108,63);fill-rule:nonzero;"/>
    </g>
    <g>
        <path d="M2684.1,1620.29C2665.47,1563.07 2596.08,1491.78 2536.86,1438.8C2483.4,1390.97 2482.18,1307.9 2533.53,1257.81C2623.9,1169.65 2728.66,1112.58 2798.94,1080.73C2840.58,1061.86 2888.06,1091.16 2890.13,1136.84C2893.33,1207.64 2886.42,1314.56 2837.88,1432.58C2785.38,1560.24 2691.8,1619.26 2691.8,1619.26L2684.1,1620.29Z" style="fill:rgb(255,108,108);fill-rule:nonzero;"/>
        <path d="M2693.01,1621.17L2690.6,1617.35C2691.53,1616.77 2784.19,1557.18 2835.79,1431.72C2884.51,1313.28 2891,1206.04 2887.87,1136.94C2886.93,1116.18 2875.8,1097.3 2858.08,1086.44C2840.19,1075.46 2818.96,1074.13 2799.87,1082.79C2728.56,1115.1 2624.75,1171.98 2535.1,1259.42C2510.9,1283.04 2497.43,1315.92 2498.16,1349.64C2498.89,1383.51 2513.16,1414.57 2538.36,1437.12C2595.31,1488.06 2667.2,1561.08 2686.26,1619.58L2681.96,1620.99C2663.21,1563.43 2591.89,1491.06 2535.35,1440.48C2509.21,1417.1 2494.4,1384.87 2493.64,1349.74C2492.89,1314.77 2506.85,1280.67 2531.95,1256.19C2622.07,1168.28 2726.37,1111.14 2798,1078.68C2818.19,1069.53 2841.53,1070.99 2860.44,1082.59C2879.44,1094.24 2891.38,1114.48 2892.38,1136.74C2895.54,1206.3 2889,1314.24 2839.97,1433.44C2787.79,1560.3 2693.95,1620.58 2693.01,1621.17Z" style="fill:rgb(57,0,117);fill-rule:nonzero;"/>
        <path d="M2646.44,1456.97C2637.39,1479.04 2627.06,1499.02 2616.22,1517.06C2591.29,1489.28 2563.04,1462.24 2536.88,1438.83C2483.41,1390.99 2482.2,1307.92 2533.5,1257.78C2584.86,1207.66 2640.9,1167.6 2692.62,1136.49C2696.17,1143.94 2698.34,1152.31 2698.73,1161.28C2701.91,1232.07 2694.99,1338.96 2646.44,1456.97Z" style="fill:rgb(255,108,108);fill-rule:nonzero;"/>
        <path d="M2691.61,1139.74C2632.42,1175.55 2579.76,1215.8 2535.08,1259.4C2510.88,1283.05 2497.43,1315.97 2498.17,1349.7C2498.92,1383.56 2513.2,1414.61 2538.38,1437.14C2568.26,1463.88 2594.31,1489.48 2615.85,1513.28C2626.79,1494.77 2636.38,1475.55 2644.36,1456.11C2693.05,1337.75 2699.58,1230.51 2696.48,1161.39C2696.15,1153.81 2694.51,1146.54 2691.61,1139.74ZM2616.58,1520.85L2614.54,1518.57C2592.72,1494.26 2566.08,1467.99 2535.38,1440.51C2509.25,1417.13 2494.43,1384.92 2493.66,1349.8C2492.89,1314.82 2506.83,1280.69 2531.92,1256.17C2577.4,1211.79 2631.08,1170.87 2691.46,1134.56L2693.58,1133.28L2694.66,1135.52C2698.47,1143.52 2700.6,1152.15 2700.99,1161.19C2704.11,1230.76 2697.54,1338.7 2648.54,1457.83C2640.09,1478.4 2629.87,1498.72 2618.16,1518.23L2616.58,1520.85Z" style="fill:rgb(57,0,117);fill-rule:nonzero;"/>
        <path d="M1571.42,1456.94C1605.71,1407.5 1692.66,1359.16 1764.62,1325.43C1829.57,1294.99 1854.61,1215.77 1819.83,1153.03C1758.61,1042.63 1674.67,957.851 1616.51,907.15C1582.04,877.106 1528.15,891.525 1513.04,934.68C1489.62,1001.58 1465.51,1105.96 1478.08,1232.96C1491.68,1370.32 1564.34,1453.75 1564.34,1453.75L1571.42,1456.94Z" style="fill:rgb(255,108,108);fill-rule:nonzero;"/>
        <path d="M1573.28,1458.23L1569.57,1455.65C1604.63,1405.1 1694.47,1355.82 1763.66,1323.39C1794.27,1309.04 1816.88,1283.39 1827.31,1251.16C1837.7,1219.07 1834.25,1183.7 1817.85,1154.13C1757.12,1044.6 1674.03,960.293 1615.02,908.853C1599.21,895.076 1578.51,890.242 1558.21,895.618C1538.13,900.931 1522.04,915.81 1515.17,935.428C1492.31,1000.72 1467.71,1105.3 1480.33,1232.73C1493.69,1367.73 1565.32,1451.44 1566.05,1452.27L1562.64,1455.23C1561.9,1454.39 1489.35,1369.68 1475.84,1233.18C1463.14,1104.92 1487.9,999.658 1510.9,933.934C1518.27,912.903 1535.52,896.947 1557.06,891.25C1578.49,885.581 1601.29,890.883 1617.99,905.449C1677.27,957.124 1760.75,1041.84 1821.8,1151.94C1838.8,1182.6 1842.38,1219.28 1831.6,1252.55C1820.78,1285.98 1797.33,1312.59 1765.57,1327.48C1696.89,1359.68 1607.77,1408.49 1573.28,1458.23Z" style="fill:rgb(57,0,117);fill-rule:nonzero;"/>
        <path d="M1654.43,1311.34C1656.76,1335.08 1660.91,1357.19 1666.11,1377.58C1697.98,1358.14 1732.8,1340.36 1764.59,1325.45C1829.55,1295 1854.58,1215.79 1819.86,1153.02C1785.07,1090.25 1742.91,1035.77 1702.32,991.116C1696.77,997.229 1692.29,1004.61 1689.33,1013.1C1665.95,1079.98 1641.85,1184.35 1654.43,1311.34Z" style="fill:rgb(255,108,108);fill-rule:nonzero;"/>
        <path d="M1702.35,994.517C1697.61,1000.19 1693.96,1006.68 1691.47,1013.84C1668.63,1079.16 1644.06,1183.76 1656.67,1311.12C1658.74,1332.05 1662.39,1353.21 1667.55,1374.07C1695.02,1357.46 1727.33,1340.43 1763.63,1323.41C1794.23,1309.07 1816.83,1283.43 1827.28,1251.22C1837.69,1219.12 1834.26,1183.72 1817.88,1154.11C1787.62,1099.52 1748.76,1045.83 1702.35,994.517ZM1664.67,1381.11L1663.92,1378.14C1658.31,1356.12 1654.36,1333.71 1652.18,1311.56C1639.48,1183.38 1664.21,1078.1 1687.2,1012.36C1690.17,1003.82 1694.69,996.157 1700.64,989.599L1702.31,987.757L1703.99,989.597C1751.38,1041.74 1791.03,1096.35 1821.83,1151.93C1838.81,1182.63 1842.37,1219.32 1831.57,1252.61C1820.74,1286.02 1797.29,1312.62 1765.55,1327.5C1728.23,1344.99 1695.18,1362.49 1667.29,1379.52L1664.67,1381.11Z" style="fill:rgb(57,0,117);fill-rule:nonzero;"/>
        <path d="M2868.57,2139.28C2811.71,2099.11 2775.42,1987.72 2769.18,1933.78C2765.55,1902.61 2754.79,1840.52 2746.34,1793.56C3071.14,1592.92 3064.99,896.728 2851.06,939.147C2609.47,987.049 2420.78,1181.63 2332.15,1289.68C2241.05,1254.33 2172.35,1249.37 2172.35,1249.37C2172.35,1249.37 2103.38,1233.97 2003.92,1242.35C1950.29,1113.6 1825.41,872.141 1607.28,756.556C1413.85,654.064 1207.07,1324.41 1464.84,1608.16C1443.44,1650.38 1416.15,1705.12 1403.99,1733.36C1382.46,1783.23 1315.69,1879.49 1249.64,1901.62C1210.7,1914.67 1204.51,1944.61 1226.11,1970.94C1239.97,1987.83 1265.35,2003.28 1300.8,2011.73C1303.6,2012.44 1306.54,2013.04 1309.48,2013.64C1309.48,2013.64 1309.43,2013.64 1309.29,2013.74L1309.25,2013.74C1306.87,2014.84 1286.99,2023.82 1235.96,2047.73C1185.97,2071.19 1216.75,2116.67 1287.53,2168.1C1358.27,2219.48 1443.23,2327.43 1461.46,2344.23C1472.13,2354.07 1528.05,2414.24 1641.91,2472.68C1722.92,2514.31 1833.27,2555.08 1977.51,2576.25L1977.56,2576.26C2324.47,2627.19 2516.24,2513.23 2538.53,2502.34C2560.81,2491.49 2673.21,2412.52 2755.78,2383.64C2838.31,2354.72 2880.86,2320.01 2839.69,2283.16C2794.78,2242.95 2779.07,2229.38 2779.07,2229.38C2781.97,2229.68 2784.84,2229.89 2787.63,2230.04C2824.18,2232.17 2853.05,2224.67 2871.23,2212.45C2899.49,2193.43 2902.17,2162.98 2868.57,2139.28Z" style="fill:rgb(249,155,40);fill-rule:nonzero;"/>
        <path d="M2315.2,1283.35C2232.66,1253.73 2172.35,1249.37 2172.35,1249.37C2172.35,1249.37 2129.71,1239.85 2063.15,1239.85C2050.26,1239.85 2036.49,1240.21 2021.95,1241.06C2021.82,1239.16 2021.38,1237.25 2020.61,1235.4C2020.58,1235.33 2020.55,1235.27 2020.52,1235.2C2035.9,1234.26 2050.44,1233.86 2063.99,1233.86C2130.59,1233.86 2173.25,1243.39 2173.25,1243.39C2173.25,1243.39 2234.62,1247.83 2318.23,1278.16C2318.2,1278.19 2318.18,1278.23 2318.15,1278.26C2316.86,1279.83 2315.88,1281.55 2315.2,1283.35Z" style="fill:rgb(177,229,255);fill-rule:nonzero;"/>
        <g transform="matrix(1,0,0,1,0,4)">
            <path d="M2303.62,1365.4C2293.45,1365.41 2283.19,1363.97 2273.11,1361.01C2209.82,1342.43 2159.82,1334.87 2159.82,1334.87C2159.82,1334.87 2108.44,1327.46 2040.78,1327.28C1997,1327.16 1957.42,1301.33 1940.36,1261.01C1881.6,1122.13 1782.16,917.42 1598.01,819.819C1584.47,812.645 1570.85,809.254 1557.34,809.254C1507.97,809.254 1459.92,854.524 1421.19,925.658C1438.06,883.928 1457.54,848.291 1478.25,821.621C1500.17,793.397 1531.39,764.199 1566.73,764.199C1577.12,764.199 1587.86,766.722 1598.82,772.532C1810.77,884.866 1933.16,1119.46 1987.25,1249.3C1990.13,1256.24 1996.85,1260.42 2003.93,1260.42C2006.25,1260.42 2008.6,1259.98 2010.87,1259.03C2018.23,1255.96 2022.49,1248.6 2021.95,1241.06C2036.49,1240.21 2050.26,1239.85 2063.15,1239.85C2129.71,1239.85 2172.35,1249.37 2172.35,1249.37C2172.35,1249.37 2232.66,1253.73 2315.2,1283.35C2312.55,1290.4 2314.52,1298.65 2320.66,1303.69C2324.02,1306.44 2328.07,1307.79 2332.1,1307.79C2337.33,1307.79 2342.51,1305.53 2346.09,1301.18C2435.18,1192.58 2619.7,1003.45 2854.59,956.883C2859.6,955.889 2864.41,955.419 2869.04,955.419C2913.41,955.419 2940.3,998.661 2955.39,1037.05C2969.59,1073.16 2978.74,1116.87 2982.75,1164.97C2964.43,1067.45 2922.35,1000.55 2860.12,1000.55C2854.18,1000.55 2848.06,1001.16 2841.76,1002.41C2637.83,1042.84 2484.08,1209.72 2387.79,1325.77C2366.68,1351.21 2335.63,1365.4 2303.62,1365.4Z" style="fill:rgb(251,195,126);fill-rule:nonzero;"/>
        </g>
        <path d="M2755.78,2383.64C2673.21,2412.52 2560.81,2491.49 2538.53,2502.34C2516.24,2513.23 2324.47,2627.19 1977.56,2576.26L1977.51,2576.25C1833.27,2555.08 1722.92,2514.31 1641.91,2472.68C1528.05,2414.24 1472.13,2354.07 1461.46,2344.23C1443.23,2327.43 1358.27,2219.48 1287.53,2168.1C1216.75,2116.67 1185.97,2071.19 1235.96,2047.73C1286.99,2023.82 1306.87,2014.84 1309.25,2013.74L1309.29,2013.74C1309.43,2013.64 1309.48,2013.64 1309.48,2013.64C1306.54,2013.04 1303.6,2012.44 1300.8,2011.73C1312.8,2009.57 1326.03,2007.8 1340.55,2006.56C1393.84,2001.97 1448.14,2036.11 1511.39,2070.25C1587.68,2111.43 1676.98,2152.61 1793.21,2125.83C1956.41,2088.22 1945.25,1716.75 1999.91,1628.57C2000.47,1627.67 2001.03,1626.82 2001.58,1625.92C2059.31,1534.95 2198.04,1555.31 2227.18,1659.04C2227.5,1660.06 2227.78,1661.04 2228.06,1662.07C2255.08,1762.23 2137.62,2114.82 2283.08,2197.74C2392.35,2260 2494.64,2241.32 2582.7,2222.65C2647.44,2208.91 2704.49,2195.18 2750.96,2213.61C2764.55,2218.98 2776.71,2224.51 2787.63,2230.04C2784.84,2229.89 2781.97,2229.68 2779.07,2229.38C2779.07,2229.38 2794.78,2242.95 2839.69,2283.16C2880.86,2320.01 2838.31,2354.72 2755.78,2383.64Z" style="fill:white;fill-rule:nonzero;"/>
        <path d="M2332.11,1307.79C2329.94,1307.79 2327.73,1307.4 2325.57,1306.56C2238.4,1272.66 2171.66,1267.43 2171,1267.39C2170.12,1267.32 2169.22,1267.19 2168.36,1267C2167.71,1266.85 2100.59,1252.31 2005.44,1260.35C1995.39,1261.18 1986.76,1253.81 1985.92,1243.87C1985.08,1233.93 1992.46,1225.18 2002.41,1224.34C2097.15,1216.34 2164.52,1229.27 2174.94,1231.45C2185.39,1232.34 2251.91,1239.14 2338.67,1272.88C2347.97,1276.49 2352.58,1286.97 2348.96,1296.27C2346.18,1303.42 2339.35,1307.79 2332.11,1307.79Z" style="fill:rgb(57,0,117);fill-rule:nonzero;"/>
        <path d="M2746.38,1811.73C2740.32,1811.73 2734.4,1808.68 2730.99,1803.15C2725.75,1794.66 2728.38,1783.53 2736.87,1778.28C2963.35,1638.42 3031.12,1229.7 2955.39,1037.05C2938.73,994.658 2907.69,946.353 2854.59,956.883C2619.7,1003.45 2435.18,1192.58 2346.09,1301.18C2339.75,1308.9 2328.36,1310.01 2320.66,1303.69C2312.95,1297.36 2311.82,1285.97 2318.15,1278.26C2410.3,1165.93 2601.62,970.191 2847.55,921.434C2908.15,909.412 2958.35,945.789 2989.02,1023.83C3028.28,1123.68 3030.82,1283.59 2995.5,1431.21C2953.9,1605.11 2868.79,1739.29 2755.85,1809.03C2752.9,1810.86 2749.62,1811.73 2746.38,1811.73Z" style="fill:rgb(57,0,117);fill-rule:nonzero;"/>
        <path d="M1464.78,1626.27C1459.86,1626.27 1454.96,1624.28 1451.4,1620.35C1361.94,1521.89 1317.88,1369.03 1327.32,1189.94C1335.34,1038.14 1383.37,884.868 1449.71,799.456C1501.81,732.363 1560.77,711.473 1615.75,740.6C1837.66,858.216 1964.65,1101.09 2020.61,1235.4C2024.44,1244.61 2020.09,1255.19 2010.87,1259.03C2001.66,1262.87 1991.08,1258.51 1987.25,1249.3C1933.16,1119.46 1810.77,884.866 1598.82,772.532C1550.56,746.951 1506.61,785.103 1478.25,821.621C1364.34,968.299 1287.64,1386.37 1478.14,1596.05C1484.85,1603.44 1484.31,1614.87 1476.92,1621.58C1473.46,1624.72 1469.11,1626.27 1464.78,1626.27Z" style="fill:rgb(57,0,117);fill-rule:nonzero;"/>
        <path d="M2150.67,2589.3C2147.8,2589.3 2144.9,2589.29 2142,2589.26C2091.79,2588.86 2036.95,2584.98 1977.58,2576.26L1977.53,2576.25C1895.31,2564.18 1824.13,2545.76 1763.11,2524.43C1764.12,2521.55 1762.73,2518.34 1759.88,2517.14L1759.57,2517.01C1728.63,2520.53 1543.32,2409.65 1543.75,2389.08C1573.99,2375.92 1567.51,2336.21 1577.92,2303.2C1667.21,2355.38 1761.08,2401.26 1863.78,2434.98C1905.89,2447.45 1949.33,2457.28 1994.03,2463.84C2039.15,2470.47 2084.05,2473.54 2128.37,2473.63C2243.34,2468.48 2336.69,2448.54 2433.55,2431.01C2490.04,2452.88 2481.8,2483.16 2437.52,2526.07C2436.81,2527.11 2260.57,2581.8 2260.65,2583.15C2260.65,2583.26 2260.66,2583.37 2260.67,2583.47C2244.76,2585.2 2228.18,2586.6 2210.94,2587.59C2191.68,2588.69 2171.57,2589.3 2150.67,2589.3ZM2437.52,2526.07C2440.76,2517.84 2443.12,2509.12 2444.45,2500C2447.96,2475.95 2444.04,2452.06 2433.55,2431.01C2579.99,2391.27 2709.1,2330.24 2805.85,2276.49L2822.26,2291.08L2826.11,2294.51L2828.03,2296.22L2829.47,2297.61C2831.46,2299.43 2833.05,2301.3 2834.41,2303.08C2837.16,2306.74 2838.06,2309.65 2838.04,2311.8C2838.14,2313.95 2837.16,2316.9 2834.48,2320.59C2831.84,2324.21 2827.89,2328.05 2823.31,2331.61C2814.06,2338.77 2802.72,2345 2791.01,2350.57C2779.22,2356.13 2766.85,2361.01 2754.24,2365.46L2749.48,2367.15L2744.39,2369.05L2734.22,2372.85C2727.59,2375.59 2720.97,2378.34 2714.46,2381.23C2662.65,2404.67 2614.68,2433.41 2567.79,2462.84L2550.36,2473.88C2544.66,2477.48 2538.76,2481.22 2533.57,2484.19C2532.29,2484.87 2531.36,2485.46 2529.8,2486.26L2525.2,2488.6L2516.26,2493.05C2510.24,2495.96 2504.15,2498.77 2498.01,2501.53C2478.23,2510.39 2458,2518.48 2437.52,2526.07ZM1543.75,2389.08C1520.27,2370.92 1497.53,2351.88 1475.77,2332.07C1472.92,2329.43 1471.71,2328.22 1469.12,2325.44C1466.83,2322.98 1464.5,2320.45 1462.13,2317.76L1447.92,2301.68C1438.41,2290.86 1428.82,2279.93 1419.02,2269.2C1399.43,2247.68 1379.26,2226.53 1358.21,2205.98C1347.69,2195.71 1336.76,2185.73 1325.53,2175.97C1319.69,2171.24 1314.17,2166.3 1308.07,2161.77L1299.04,2154.9L1290.53,2148.57C1279.38,2140.18 1268.61,2131.42 1258.75,2122.17C1248.98,2112.95 1239.89,2103.01 1234.02,2093.12C1231.1,2088.24 1229.33,2083.41 1228.97,2079.97C1228.71,2078.21 1228.98,2076.98 1229.26,2075.81C1229.55,2074.66 1230.06,2073.56 1231.13,2072.27C1232.96,2069.65 1237.22,2066.68 1242.17,2064.2L1261.37,2055.22L1270.3,2051.07C1346.6,2129.39 1451.14,2223.64 1577.92,2303.2C1589.62,2344.93 1656.93,2433.16 1581.27,2399.37C1575.05,2396.59 1543.59,2382.49 1543.75,2389.08Z" style="fill:rgb(195,178,213);fill-rule:nonzero;"/>
        <path d="M1756.17,2528.17C1742.04,2524.58 1727.57,2521.52 1713.75,2516.64C1706.82,2514.29 1699.69,2512.29 1692.87,2509.61L1672.35,2501.6C1645.28,2490.25 1618.76,2477.39 1593.33,2462.72C1542.45,2433.26 1494.59,2399.16 1450.59,2359.55C1448.13,2357.31 1444.22,2353.43 1441.95,2350.89C1439.32,2348.07 1436.78,2345.27 1434.39,2342.55L1419.99,2326.16L1391.6,2293.77C1372.64,2272.37 1353.46,2251.27 1333.31,2231.42C1323.28,2221.45 1312.97,2211.89 1302.51,2202.64C1297.16,2198.25 1291.96,2193.52 1286.5,2189.4L1278.34,2183.13L1269.49,2176.55C1257.6,2167.59 1245.94,2158.14 1234.76,2147.66C1223.65,2137.05 1212.78,2125.73 1203.81,2110.81C1199.45,2103.3 1195.42,2094.54 1194.16,2083.6C1192.71,2072.78 1196.28,2059.33 1203.49,2050.79C1210.45,2041.85 1218.77,2036.9 1226.58,2032.86C1228.71,2031.76 1230.15,2031.14 1231.83,2030.35L1236.75,2028.06L1246.57,2023.5L1285.88,2005.23L1290.79,2002.95L1291.4,2002.67L1291.71,2002.52L1290.88,2002.93C1289.5,2003.7 1288.14,2004.78 1287.04,2006.08C1284.8,2008.73 1283.82,2011.86 1283.78,2014.7C1283.76,2017.57 1284.59,2020.54 1286.78,2023.34C1287.87,2024.73 1289.35,2025.95 1290.91,2026.84C1291.73,2027.28 1292.52,2027.62 1293.28,2027.88C1293.57,2027.99 1294.3,2028.17 1294.25,2028.15L1293.9,2028.06L1288.23,2026.52C1280.68,2024.43 1273.2,2021.93 1265.84,2018.89C1251.14,2012.86 1236.77,2004.94 1223.92,1993.71C1217.54,1988.06 1211.54,1981.53 1206.53,1973.71C1201.59,1965.88 1197.66,1956.5 1196.55,1945.87C1195.5,1935.3 1197.95,1923.49 1203.75,1914.41C1209.4,1905.2 1217.19,1898.47 1225.08,1893.7L1231.06,1890.39L1237.11,1887.63L1243.18,1885.35C1245.14,1884.63 1246.16,1884.14 1247.7,1883.53C1250.52,1882.28 1253.41,1881.48 1256.2,1879.92L1264.6,1875.46C1286.78,1862.17 1307.08,1843.25 1325.09,1822.4C1343.23,1801.6 1359.42,1778.63 1373.33,1754.8L1378.39,1745.81L1383.06,1736.74C1384.58,1733.72 1385.88,1730.69 1387.3,1727.67L1391.77,1717.63C1397.83,1704.17 1404.12,1691.11 1410.45,1678.03C1423.14,1651.93 1436.1,1626.09 1449.16,1600.29C1453.52,1591.67 1464.05,1588.22 1472.68,1592.58C1481.3,1596.95 1484.75,1607.48 1480.39,1616.1L1480.38,1616.11C1467.38,1641.79 1454.47,1667.53 1441.94,1693.32C1435.7,1706.21 1429.48,1719.15 1423.69,1732L1419.36,1741.72C1417.72,1745.23 1416.16,1748.83 1414.44,1752.25L1409.2,1762.42L1403.66,1772.29C1388.48,1798.27 1371.27,1822.66 1351.51,1845.37C1331.81,1868.04 1309.6,1889.25 1282.21,1905.71L1271.51,1911.39C1267.98,1913.32 1263.92,1914.64 1260.13,1916.26L1254.6,1918.44L1250.53,1919.96L1246.74,1921.69L1243.25,1923.61C1238.81,1926.28 1235.58,1929.47 1233.67,1932.58C1231.68,1935.69 1231.16,1938.8 1231.39,1942.53C1231.81,1946.27 1233.35,1950.63 1236.1,1954.98C1238.88,1959.32 1242.67,1963.57 1247.08,1967.46C1255.97,1975.26 1267.14,1981.63 1279.1,1986.49C1285.07,1988.96 1291.3,1991.05 1297.65,1992.81L1302.42,1994.11L1302.72,1994.19L1304.33,1994.67C1305.53,1995.06 1306.73,1995.57 1307.94,1996.25C1310.31,1997.55 1312.45,1999.4 1314.12,2001.47C1317.46,2005.69 1318.82,2010.48 1318.78,2015.14C1318.75,2019.78 1317.13,2024.73 1313.71,2028.74C1312.04,2030.73 1309.97,2032.39 1307.78,2033.58L1306.36,2034.31L1306.06,2034.45L1305.45,2034.74L1300.55,2037.01L1261.37,2055.22L1242.17,2064.2C1237.22,2066.68 1232.96,2069.65 1231.13,2072.27C1230.06,2073.56 1229.55,2074.66 1229.26,2075.81C1228.98,2076.98 1228.71,2078.21 1228.97,2079.97C1229.33,2083.41 1231.1,2088.24 1234.02,2093.12C1239.89,2103.01 1248.98,2112.95 1258.75,2122.17C1268.61,2131.42 1279.38,2140.18 1290.53,2148.57L1299.04,2154.9L1308.07,2161.77C1314.17,2166.3 1319.69,2171.24 1325.53,2175.97C1336.76,2185.73 1347.69,2195.71 1358.21,2205.98C1379.26,2226.53 1399.43,2247.68 1419.02,2269.2C1428.82,2279.93 1438.41,2290.86 1447.92,2301.68L1462.13,2317.76C1464.5,2320.45 1466.83,2322.98 1469.12,2325.44C1471.71,2328.22 1472.92,2329.43 1475.77,2332.07C1517.33,2369.9 1562.46,2404.93 1609.56,2436.4C1633.15,2452.16 1657.52,2466.65 1682.4,2480.37C1707.37,2493.95 1733.17,2505.83 1759.57,2517.01L1759.88,2517.14C1762.84,2518.39 1764.23,2521.82 1762.98,2524.79C1761.84,2527.48 1758.92,2528.87 1756.17,2528.17Z" style="fill:rgb(57,0,117);fill-rule:nonzero;"/>
        <path d="M2763.59,1790.56C2768.47,1817.78 2773.24,1845.01 2777.74,1872.38C2779.98,1886.07 2782.17,1899.77 2784.14,1913.65L2786.9,1934.38C2787.68,1940.65 2788.9,1947.06 2790.13,1953.46C2795.6,1979.16 2803.61,2004.8 2813.71,2029.27C2823.7,2053.79 2836.13,2077.26 2851.36,2097.52C2853.17,2100.16 2855.34,2102.33 2857.31,2104.77C2859.32,2107.15 2861.28,2109.61 2863.51,2111.63L2869.98,2118.02L2876.84,2123.5L2878.55,2124.89L2880.96,2126.71C2882.6,2127.99 2884.27,2129.13 2885.85,2130.58C2889.07,2133.28 2892.18,2136.31 2895.13,2139.63C2900.96,2146.3 2906.18,2154.65 2908.83,2164.63C2911.66,2174.55 2910.86,2185.96 2907.25,2195.54C2903.62,2205.2 2897.54,2212.89 2891.01,2218.99C2877.71,2231.15 2862.42,2237.56 2847.36,2241.9C2832.21,2246 2816.97,2247.74 2801.95,2247.85C2798.19,2247.97 2794.45,2247.76 2790.71,2247.69L2790,2247.67L2789.65,2247.66C2789.57,2247.66 2789.23,2247.65 2789.84,2247.68C2791.38,2247.71 2793.11,2247.45 2794.76,2246.86C2798.14,2245.67 2800.67,2243.27 2802.06,2240.83C2803.46,2238.36 2804.13,2235.65 2803.8,2232.54C2803.54,2229.47 2801.75,2226.02 2799.59,2224.06L2814.58,2237.4L2845.58,2264.98L2849.45,2268.42L2851.39,2270.15L2853.7,2272.34C2856.77,2275.2 2859.75,2278.54 2862.54,2282.26C2868.05,2289.52 2873.07,2299.93 2873.04,2311.64C2873.21,2323.4 2868.24,2333.75 2862.85,2341.11C2857.32,2348.62 2851.1,2354.29 2844.83,2359.22C2832.2,2368.94 2819.12,2375.91 2805.97,2382.21C2792.78,2388.38 2779.51,2393.78 2766.15,2398.62L2761.18,2400.43L2756.59,2402.2L2747.4,2405.71C2741.31,2408.31 2735.21,2410.9 2729.14,2413.65C2704.85,2424.8 2681.12,2437.97 2657.63,2451.68C2634.14,2465.45 2610.85,2479.69 2587.57,2494.42L2569.92,2505.33C2563.88,2508.98 2558.08,2512.55 2551.23,2516.33L2545.87,2519.11L2541.18,2521.34L2531.45,2525.78C2524.94,2528.66 2518.41,2531.4 2511.86,2534.08C2485.6,2544.53 2458.94,2553.55 2431.88,2560.98C2377.82,2575.93 2322.44,2585.42 2266.83,2588.66C2263.61,2588.85 2260.84,2586.38 2260.65,2583.15C2260.48,2580.29 2262.39,2577.8 2265.07,2577.13L2265.15,2577.11C2291.91,2570.43 2318.49,2563.85 2344.76,2556.31C2371,2548.72 2396.99,2540.53 2422.6,2531.49C2448.17,2522.36 2473.44,2512.54 2498.01,2501.53C2504.15,2498.77 2510.24,2495.96 2516.26,2493.05L2525.2,2488.6L2529.8,2486.26C2531.36,2485.46 2532.29,2484.87 2533.57,2484.19C2538.76,2481.22 2544.66,2477.48 2550.36,2473.88L2567.79,2462.84C2614.68,2433.41 2662.65,2404.67 2714.46,2381.23C2720.97,2378.34 2727.59,2375.59 2734.22,2372.85L2744.39,2369.05L2749.48,2367.15L2754.24,2365.46C2766.85,2361.01 2779.22,2356.13 2791.01,2350.57C2802.72,2345 2814.06,2338.77 2823.31,2331.61C2827.89,2328.05 2831.84,2324.21 2834.48,2320.59C2837.16,2316.9 2838.14,2313.95 2838.04,2311.8C2838.06,2309.65 2837.16,2306.74 2834.41,2303.08C2833.05,2301.3 2831.46,2299.43 2829.47,2297.61L2828.03,2296.22L2826.11,2294.51L2822.26,2291.08L2791.42,2263.65L2775.5,2249.46C2772.07,2246.33 2769.47,2241.24 2769.02,2236.46C2768.5,2231.64 2769.53,2227.15 2771.82,2223.2C2774.08,2219.28 2777.99,2215.67 2782.99,2213.9C2785.45,2213.01 2788.05,2212.64 2790.44,2212.68L2792.16,2212.72C2795.31,2212.77 2798.47,2212.96 2801.6,2212.85C2814.17,2212.77 2826.54,2211.27 2838.04,2208.17C2849.39,2204.98 2860.09,2199.97 2867.19,2193.34C2870.7,2190.07 2873.28,2186.53 2874.48,2183.23C2875.6,2179.9 2875.95,2176.9 2874.97,2173.5C2874.07,2170.12 2872,2166.33 2868.76,2162.66C2867.12,2160.83 2865.3,2159.02 2863.23,2157.29C2862.29,2156.38 2861.08,2155.6 2860.01,2154.75L2855.97,2151.6L2846.68,2144.15L2838.4,2136.02C2835.55,2133.36 2833.18,2130.43 2830.73,2127.55C2828.36,2124.64 2825.69,2121.85 2823.57,2118.81C2805.63,2094.93 2792.2,2069.13 2781.35,2042.61C2770.41,2016.07 2761.88,1988.85 2755.86,1960.56C2754.47,1953.42 2753.11,1946.27 2752.18,1938.85L2749.48,1918.57C2747.58,1905.13 2745.41,1891.58 2743.2,1878.05C2738.75,1850.96 2733.99,1823.85 2729.13,1796.75C2727.42,1787.24 2733.75,1778.14 2743.26,1776.43C2752.78,1774.71 2761.87,1781.04 2763.58,1790.55L2763.59,1790.56Z" style="fill:rgb(57,0,117);fill-rule:nonzero;"/>
        <path d="M1763.11,2524.43C1739.07,2516.03 1716.61,2507.17 1695.67,2498.08C1699.85,2496.8 1703.93,2495.29 1707.91,2493.56C1724.82,2501.88 1742.06,2509.6 1759.57,2517.01L1759.88,2517.14C1762.73,2518.34 1764.12,2521.55 1763.11,2524.43ZM1547.66,2416.11C1496.07,2380 1468.59,2350.82 1461.44,2344.23C1443.24,2327.46 1358.26,2219.5 1287.51,2168.12C1216.76,2116.68 1185.98,2071.17 1235.98,2047.71C1243.85,2044.02 1251,2040.72 1257.44,2037.75C1261.63,2042.13 1265.92,2046.58 1270.3,2051.07L1261.37,2055.22L1242.17,2064.2C1237.22,2066.68 1232.96,2069.65 1231.13,2072.27C1230.06,2073.56 1229.55,2074.66 1229.26,2075.81C1228.98,2076.98 1228.71,2078.21 1228.97,2079.97C1229.33,2083.41 1231.1,2088.24 1234.02,2093.12C1239.89,2103.01 1248.98,2112.95 1258.75,2122.17C1268.61,2131.42 1279.38,2140.18 1290.53,2148.57L1299.04,2154.9L1308.07,2161.77C1314.17,2166.3 1319.69,2171.24 1325.53,2175.97C1336.76,2185.73 1347.69,2195.71 1358.21,2205.98C1379.26,2226.53 1399.43,2247.68 1419.02,2269.2C1428.82,2279.93 1438.41,2290.86 1447.92,2301.68L1462.13,2317.76C1464.5,2320.45 1466.83,2322.98 1469.12,2325.44C1471.71,2328.22 1472.92,2329.43 1475.77,2332.07C1497.53,2351.88 1520.27,2370.92 1543.75,2389.08C1543.99,2398.34 1545.33,2407.4 1547.66,2416.11Z" style="fill:rgb(57,0,117);fill-rule:nonzero;"/>
        <path d="M2260.68,2583.48L2260.67,2583.48L2260.67,2583.47C2260.66,2583.37 2260.65,2583.26 2260.65,2583.15C2260.57,2581.8 2260.96,2580.53 2261.67,2579.49C2263.33,2580.64 2265.02,2581.74 2266.74,2582.8C2264.73,2583.03 2262.71,2583.26 2260.68,2583.48ZM2424.78,2549.83C2429.88,2542.51 2434.17,2534.55 2437.52,2526.07C2458,2518.48 2478.23,2510.39 2498.01,2501.53C2504.15,2498.77 2510.24,2495.96 2516.26,2493.05L2525.2,2488.6L2529.8,2486.26C2531.36,2485.46 2532.29,2484.87 2533.57,2484.19C2538.76,2481.22 2544.66,2477.48 2550.36,2473.88L2567.79,2462.84C2614.68,2433.41 2662.65,2404.67 2714.46,2381.23C2720.97,2378.34 2727.59,2375.59 2734.22,2372.85L2744.39,2369.05L2749.48,2367.15L2754.24,2365.46C2766.85,2361.01 2779.22,2356.13 2791.01,2350.57C2802.72,2345 2814.06,2338.77 2823.31,2331.61C2827.89,2328.05 2831.84,2324.21 2834.48,2320.59C2837.16,2316.9 2838.14,2313.95 2838.04,2311.8C2838.06,2309.65 2837.16,2306.74 2834.41,2303.08C2833.05,2301.3 2831.46,2299.43 2829.47,2297.61L2828.03,2296.22L2826.11,2294.51L2822.26,2291.08L2805.85,2276.49C2811.36,2273.43 2816.77,2270.39 2822.06,2267.38C2827.37,2272.13 2833.22,2277.34 2839.7,2283.14C2880.85,2319.98 2838.33,2354.73 2755.79,2383.66C2673.2,2412.53 2560.78,2491.51 2538.53,2502.35C2529.29,2506.86 2491.05,2529.01 2424.78,2549.83Z" style="fill:rgb(57,0,117);fill-rule:nonzero;"/>
        <path d="M1487.32,1273.9C1500.75,1418.22 1576.52,1506.29 1576.52,1506.29L1583.9,1509.73C1604.14,1480.91 1641.56,1452.56 1683.87,1426.96C1717.46,1406.73 1754.14,1388.28 1787.62,1372.82C1856.03,1341.24 1882.81,1258.2 1846.73,1192.07C1810.58,1125.93 1766.65,1068.46 1724.29,1021.3C1692.14,985.554 1660.85,955.719 1634.67,932.591C1598.66,900.827 1541.99,915.619 1525.88,960.838C1500.85,1031 1474.89,1140.46 1487.32,1273.9Z" style="fill:rgb(255,108,108);fill-rule:nonzero;"/>
        <path d="M1685.33,1423.45C1680.02,1401.48 1676.3,1379.18 1674.26,1357.11C1661.8,1223.25 1688.25,1113.54 1712.64,1045.07C1715.33,1037.5 1719.25,1030.66 1724.3,1024.7C1772.76,1078.91 1813.28,1135.57 1844.75,1193.15C1861.78,1224.37 1865.17,1261.6 1854.02,1295.28C1842.85,1329.07 1818.93,1355.88 1786.67,1370.77C1748.37,1388.46 1714.29,1406.17 1685.33,1423.45Z" style="fill:rgb(195,75,111);fill-rule:nonzero;"/>
        <path d="M1682.41,1430.47L1681.84,1428.19C1682.52,1427.78 1683.19,1427.37 1683.87,1426.96C1717.46,1406.73 1754.14,1388.28 1787.62,1372.82C1856.03,1341.24 1882.81,1258.2 1846.73,1192.07C1810.58,1125.93 1766.65,1068.46 1724.29,1021.3C1723.78,1020.74 1723.27,1020.18 1722.77,1019.62L1724.31,1017.94L1725.97,1019.8C1775.41,1074.83 1816.7,1132.43 1848.71,1190.98C1866.34,1223.31 1869.84,1261.83 1858.31,1296.69C1846.74,1331.69 1821.97,1359.45 1788.56,1374.87C1749.24,1393.03 1714.41,1411.21 1685.03,1428.9L1682.41,1430.47Z" style="fill:rgb(206,115,51);fill-rule:nonzero;"/>
        <path d="M1681.84,1428.19L1681.67,1427.51C1675.92,1404.36 1671.91,1380.82 1669.76,1357.52C1657.22,1222.85 1683.84,1112.45 1708.38,1043.55C1711.56,1034.61 1716.35,1026.61 1722.62,1019.78L1722.77,1019.62C1723.27,1020.18 1723.78,1020.74 1724.29,1021.3C1766.65,1068.46 1810.58,1125.93 1846.73,1192.07C1882.81,1258.2 1856.03,1341.24 1787.62,1372.82C1754.14,1388.28 1717.46,1406.73 1683.87,1426.96C1683.19,1427.37 1682.52,1427.78 1681.84,1428.19ZM1724.3,1024.7C1719.25,1030.66 1715.33,1037.5 1712.64,1045.07C1688.25,1113.54 1661.8,1223.25 1674.26,1357.11C1676.3,1379.18 1680.02,1401.48 1685.33,1423.45C1714.29,1406.17 1748.37,1388.46 1786.67,1370.77C1818.93,1355.88 1842.85,1329.07 1854.02,1295.28C1865.17,1261.6 1861.78,1224.37 1844.75,1193.15C1813.28,1135.57 1772.76,1078.91 1724.3,1024.7Z" style="fill:rgb(210,83,99);fill-rule:nonzero;"/>
        <path d="M1589.63,1522.01C1587.09,1523.77 1580.22,1523.11 1580.24,1522.78L1579.18,1522.46C1578.53,1522.26 1577.66,1521.96 1577.32,1521.78C1576.42,1521.38 1575.5,1520.95 1574.65,1520.5C1573.35,1519.7 1571.83,1518.82 1570.78,1518L1567.59,1515.49L1564.89,1512.99C1561.42,1509.64 1558.52,1506.26 1555.84,1502.84C1550.45,1496.02 1545.94,1489.06 1541.68,1482.03C1533.19,1467.98 1526.08,1453.61 1519.34,1439.13C1515.99,1431.89 1512.69,1424.63 1509.65,1417.31C1506.47,1410.02 1503.47,1402.69 1500.59,1395.32L1496.18,1384.29L1492.19,1372.77C1489.55,1365.06 1486.74,1357.4 1484.89,1349.5C1467.43,1286.78 1465.49,1221.76 1469.98,1158.31C1472.33,1126.51 1476.55,1094.93 1482.34,1063.66C1485.26,1048.03 1488.49,1032.45 1492.25,1016.98C1494.05,1009.22 1496.04,1001.51 1498.12,993.807L1499.66,988.025L1501.46,981.971C1502.67,977.938 1504.08,973.919 1505.56,969.917C1511.56,953.965 1519.89,938.105 1532.26,924.314C1538.49,917.49 1545.75,911.235 1554.05,906.279C1556.01,905.059 1558.39,903.818 1560.84,902.635C1563.31,901.563 1565.8,900.552 1568.38,899.78C1573.53,898.201 1578.86,897.285 1584.23,897.059C1594.96,896.561 1605.74,899.033 1615.31,903.87C1617.71,905.068 1619.99,906.479 1622.24,907.947L1625.48,910.33C1626.57,911.147 1627.13,911.648 1627.98,912.322C1631.08,914.871 1634.26,917.354 1637.3,919.959C1649.65,930.195 1661.47,940.938 1673.12,951.86C1696.26,973.846 1718.19,997.046 1738.86,1021.33C1759.52,1045.61 1779.09,1070.88 1796.75,1097.47C1801.36,1103.98 1805.55,1110.78 1809.85,1117.5C1814.1,1124.25 1818.51,1130.91 1822.44,1137.86L1834.54,1158.52L1845.87,1179.63C1849.73,1186.62 1853.25,1193.79 1856.64,1201.03L1861.8,1211.84C1863.51,1215.61 1865.26,1218.65 1866.93,1223.18C1873.95,1239.99 1877.2,1258.42 1876.35,1276.61C1875.02,1313.13 1855.99,1348.09 1826.86,1369.73C1823.3,1372.54 1819.31,1374.75 1815.54,1377.24C1811.62,1379.49 1807.51,1381.39 1803.49,1383.44L1782.31,1392.92C1768.26,1399.3 1754.37,1406 1740.63,1412.94C1713.17,1426.81 1686.41,1441.95 1661.16,1458.82C1648.62,1467.33 1636.31,1476.18 1625.13,1485.97C1622.22,1488.33 1619.52,1490.85 1616.87,1493.4C1614.23,1495.96 1611.39,1498.39 1609.02,1501.12L1605.31,1505.11L1603.45,1507.1L1602.52,1508.1L1601.18,1509.72C1597.56,1514.09 1593.59,1518.26 1589.63,1522.01ZM1578.24,1497.42C1579.04,1494.98 1579.84,1492.96 1580.99,1491.14L1581.45,1490.44L1582.48,1489.27L1584.54,1486.9L1588.68,1482.19C1591.38,1478.95 1594.4,1476.18 1597.29,1473.22C1600.19,1470.26 1603.13,1467.37 1606.21,1464.7C1618.25,1453.54 1631.11,1443.74 1644.16,1434.32C1670.33,1415.58 1697.91,1399.55 1725.89,1384.58C1739.91,1377.12 1754.04,1369.94 1768.31,1363.1L1789.73,1352.97C1792.62,1351.37 1795.62,1349.99 1798.45,1348.31C1801.13,1346.4 1804.05,1344.85 1806.57,1342.74C1827.34,1326.81 1840.81,1301.34 1841.31,1275.15C1841.71,1262.11 1839.22,1249.08 1834.04,1237.12C1833.05,1234.29 1830.93,1230.51 1829.36,1227.18L1824.27,1216.9C1820.9,1210.05 1817.6,1203.15 1813.85,1196.48L1802.98,1176.28L1791.34,1156.51C1787.58,1149.85 1783.32,1143.49 1779.23,1137.02C1775.1,1130.58 1771.08,1124.07 1766.64,1117.83C1732.33,1067.16 1692.93,1019.75 1648.94,977.171C1637.9,966.597 1626.68,956.18 1615.06,946.348C1612.19,943.831 1609.23,941.479 1606.32,939.033C1605.65,938.486 1604.74,937.69 1604.26,937.349L1602.8,936.233C1601.76,935.574 1600.74,934.893 1599.65,934.344C1595.31,932.103 1590.37,930.854 1585.47,931.053C1583.02,931.131 1580.6,931.519 1578.26,932.2C1577.08,932.522 1575.96,932.993 1574.83,933.44C1573.77,933.973 1572.65,934.48 1571.29,935.313C1566.13,938.313 1561.34,942.3 1556.98,946.951C1548.33,956.377 1541.5,968.496 1536.41,981.704C1535.15,985.015 1533.92,988.367 1532.86,991.807L1531.26,996.968L1529.73,1002.5C1527.65,1009.87 1525.66,1017.27 1523.84,1024.72C1520.07,1039.59 1516.79,1054.6 1513.81,1069.67C1507.9,1099.8 1503.52,1130.24 1500.94,1160.77C1495.94,1221.67 1497.34,1283.66 1512.95,1341.86C1514.57,1349.23 1517.1,1356.27 1519.45,1363.38L1523,1374.06L1527.18,1384.85C1529.92,1392.07 1532.77,1399.23 1535.76,1406.3C1538.64,1413.45 1541.74,1420.45 1544.87,1427.43C1551.17,1441.34 1557.82,1455.11 1565.38,1467.89C1569.15,1474.27 1573.12,1480.48 1577.37,1485.97C1579.47,1488.73 1581.67,1491.29 1583.8,1493.39L1585.37,1494.92L1586.78,1496.04C1587.25,1496.44 1587.47,1496.48 1587.8,1496.76L1587.76,1496.76C1587.85,1496.82 1587.47,1496.63 1587.27,1496.59L1586.91,1496.5C1587.16,1496.25 1580.53,1495.61 1578.24,1497.42Z" style="fill:rgb(57,0,117);fill-rule:nonzero;"/>
        <path d="M2857.31,1432.83C2811.2,1570.24 2717.28,1638.63 2717.28,1638.63L2709.31,1640.28C2696.2,1607.59 2666.26,1571.43 2630.94,1536.83C2602.88,1509.45 2571.39,1483.08 2542.34,1460.37C2482.97,1413.97 2475.91,1327 2526.18,1270.89C2576.5,1214.78 2632.43,1168.89 2684.46,1132.69C2723.94,1105.25 2761.23,1083.37 2792.01,1066.85C2834.33,1044.17 2886.11,1071.54 2891.44,1119.25C2899.75,1193.28 2899.96,1305.77 2857.31,1432.83Z" style="fill:rgb(255,108,108);fill-rule:nonzero;"/>
        <path d="M2630.32,1533.07C2606.06,1509.6 2576.94,1484.56 2543.73,1458.59C2515.74,1436.71 2498.59,1405.14 2495.45,1369.68C2492.32,1334.35 2504.13,1298.89 2527.86,1272.4C2571.67,1223.55 2624.08,1177.67 2683.67,1135.99C2687.23,1142.95 2689.47,1150.51 2690.35,1158.49C2698.43,1230.71 2699.07,1343.55 2656.28,1471.03C2649.26,1492.01 2640.53,1512.87 2630.32,1533.07Z" style="fill:rgb(195,75,111);fill-rule:nonzero;"/>
        <path d="M2631.55,1540.58L2629.37,1538.44C2604.79,1514.47 2575.04,1488.8 2540.95,1462.15C2511.96,1439.5 2494.21,1406.8 2490.95,1370.08C2487.71,1333.51 2499.93,1296.8 2524.49,1269.38C2569.05,1219.71 2622.44,1173.1 2683.17,1130.83L2685.21,1129.41L2686.32,1131.4C2685.7,1131.83 2685.08,1132.26 2684.46,1132.69C2632.43,1168.89 2576.5,1214.78 2526.18,1270.89C2475.91,1327 2482.97,1413.97 2542.34,1460.37C2571.39,1483.08 2602.88,1509.45 2630.94,1536.83C2631.5,1537.38 2632.07,1537.93 2632.63,1538.48L2631.55,1540.58Z" style="fill:rgb(206,115,51);fill-rule:nonzero;"/>
        <path d="M2632.63,1538.48C2632.07,1537.93 2631.5,1537.38 2630.94,1536.83C2602.88,1509.45 2571.39,1483.08 2542.34,1460.37C2482.97,1413.97 2475.91,1327 2526.18,1270.89C2576.5,1214.78 2632.43,1168.89 2684.46,1132.69C2685.08,1132.26 2685.7,1131.83 2686.32,1131.4L2686.43,1131.58C2690.97,1139.67 2693.8,1148.56 2694.84,1157.99C2702.96,1230.66 2703.61,1344.21 2660.57,1472.46C2653.16,1494.6 2643.87,1516.6 2632.95,1537.86L2632.63,1538.48ZM2683.67,1135.99C2624.08,1177.67 2571.67,1223.55 2527.86,1272.4C2504.13,1298.89 2492.32,1334.35 2495.45,1369.68C2498.59,1405.14 2515.74,1436.71 2543.73,1458.59C2576.94,1484.56 2606.06,1509.6 2630.32,1533.07C2640.53,1512.87 2649.26,1492.01 2656.28,1471.03C2699.07,1343.55 2698.43,1230.71 2690.35,1158.49C2689.47,1150.51 2687.23,1142.95 2683.67,1135.99Z" style="fill:rgb(210,83,99);fill-rule:nonzero;"/>
        <path d="M2717.64,1629.59C2715.82,1627.31 2709.22,1626.41 2709.4,1626.72L2709.03,1626.72C2708.83,1626.71 2708.42,1626.81 2708.52,1626.77L2708.48,1626.77C2708.86,1626.56 2709.09,1626.58 2709.64,1626.3L2711.27,1625.53L2713.15,1624.4C2715.7,1622.85 2718.43,1620.85 2721.11,1618.65C2726.5,1614.28 2731.78,1609.14 2736.91,1603.8C2747.2,1593.08 2756.82,1581.2 2766.14,1569.1C2770.79,1563.03 2775.41,1556.92 2779.84,1550.62C2784.38,1544.42 2788.79,1538.1 2793.11,1531.7L2799.65,1522.15L2805.55,1512.58C2809.46,1506.19 2813.54,1499.92 2816.81,1493.12C2845.32,1440.03 2860.87,1380 2869.96,1319.58C2874.43,1289.28 2877.13,1258.64 2878.28,1227.95C2878.83,1212.61 2879.07,1197.24 2878.8,1181.9C2878.74,1174.23 2878.5,1166.57 2878.16,1158.93L2877.93,1153.19L2877.56,1147.8C2877.31,1144.2 2876.88,1140.66 2876.41,1137.15C2874.48,1123.13 2870.61,1109.77 2864.34,1098.61C2861.16,1093.09 2857.42,1088.11 2853.08,1084.01C2851.95,1082.88 2850.98,1082.13 2850.07,1081.37C2849.06,1080.68 2848.08,1079.96 2847.01,1079.38C2844.89,1078.18 2842.61,1077.25 2840.25,1076.61C2835.53,1075.3 2830.44,1075.38 2825.7,1076.57C2824.51,1076.86 2823.36,1077.29 2822.2,1077.69L2820.52,1078.44C2819.98,1078.67 2818.91,1079.23 2818.13,1079.61C2814.73,1081.32 2811.31,1082.93 2807.95,1084.73C2794.38,1091.64 2781.08,1099.21 2767.91,1106.98C2715.34,1138.36 2666.14,1175.49 2621.14,1216.96C2615.39,1222.01 2609.98,1227.43 2604.49,1232.76C2599.02,1238.11 2593.43,1243.33 2588.23,1248.95L2572.38,1265.54L2557.17,1282.71C2552,1288.34 2547.21,1294.3 2542.35,1300.21L2535.05,1309.05C2532.76,1311.92 2529.83,1315.12 2528.22,1317.65C2520.44,1328.1 2515.03,1340.22 2512.44,1353C2506.92,1378.61 2514.21,1406.49 2530.78,1426.75C2532.75,1429.38 2535.24,1431.57 2537.41,1434.03C2539.78,1436.31 2542.38,1438.35 2544.83,1440.56L2563.36,1455.33C2575.69,1465.26 2587.8,1475.48 2599.73,1485.95C2623.54,1506.93 2646.72,1528.85 2667.91,1553.08C2678.46,1565.23 2688.73,1577.72 2697.89,1591.34C2700.28,1594.64 2702.49,1598.13 2704.63,1601.67C2706.77,1605.22 2709.07,1608.6 2710.95,1612.38L2713.91,1617.92L2715.38,1620.69L2716.11,1622.07L2716.39,1622.85C2717.1,1624.89 2717.41,1627.04 2717.64,1629.59ZM2700.92,1650.93C2697.92,1646.37 2695.01,1641.4 2692.49,1636.32L2691.56,1634.43L2690.88,1633.25L2689.52,1630.88L2686.82,1626.15C2685.14,1622.95 2682.93,1619.93 2680.95,1616.84C2678.96,1613.75 2676.9,1610.68 2674.61,1607.72C2665.97,1595.63 2656.01,1584.19 2645.75,1573.04C2625.04,1550.83 2602.46,1529.97 2578.89,1510.18C2567.11,1500.28 2555.12,1490.58 2542.9,1481.15L2524.46,1467.07C2521.02,1464.16 2517.45,1461.37 2514.15,1458.28C2511.05,1454.99 2507.67,1451.93 2504.85,1448.38C2481.45,1420.65 2470.93,1382.26 2477.99,1346.41C2481.33,1328.5 2488.71,1311.31 2499.39,1296.55C2502.06,1292.52 2504.46,1289.96 2506.98,1286.68L2514.48,1277.34C2519.43,1271.07 2524.5,1264.9 2529.87,1258.98L2545.72,1241.02L2562.23,1223.68C2567.65,1217.81 2573.46,1212.34 2579.15,1206.75C2584.87,1201.18 2590.51,1195.53 2596.48,1190.24C2619.77,1168.4 2644.6,1148.29 2670.27,1129.38C2695.95,1110.47 2722.6,1092.9 2750.17,1076.8C2764.01,1068.84 2777.97,1061.08 2792.34,1053.95C2795.89,1052.11 2799.56,1050.42 2803.16,1048.65C2804.15,1048.19 2804.8,1047.83 2806.05,1047.28L2809.75,1045.7C2812.27,1044.79 2814.82,1043.94 2817.43,1043.32C2827.85,1040.8 2838.91,1040.86 2849.25,1043.81C2854.41,1045.25 2859.4,1047.37 2864.05,1050.08C2866.38,1051.42 2868.58,1052.98 2870.73,1054.59C2872.85,1056.3 2874.88,1058.05 2876.51,1059.69C2883.46,1066.42 2889.09,1074.17 2893.59,1082.23C2902.48,1098.49 2906.96,1115.84 2909.15,1132.74C2909.67,1136.97 2910.12,1141.21 2910.38,1145.41L2910.75,1151.72L2910.92,1157.7C2911.18,1165.67 2911.35,1173.64 2911.33,1181.6C2911.45,1197.52 2911.03,1213.42 2910.29,1229.31C2908.77,1261.08 2905.64,1292.78 2900.65,1324.28C2890.5,1387.07 2873.73,1449.91 2842.37,1506.98C2838.76,1514.24 2834.27,1521.06 2829.94,1527.95L2823.41,1538.25L2816.6,1547.98C2812.11,1554.49 2807.5,1560.94 2802.74,1567.31C2798.11,1573.75 2793.24,1580.06 2788.32,1586.34C2778.43,1598.89 2768.23,1611.25 2756.74,1622.99C2750.99,1628.85 2745,1634.59 2738.19,1640C2734.81,1642.71 2731.21,1645.34 2727.06,1647.81L2723.87,1649.63L2720.19,1651.33C2718.97,1651.89 2717.29,1652.41 2715.85,1652.88C2714.92,1653.12 2713.92,1653.33 2712.95,1653.52C2712.58,1653.61 2711.67,1653.7 2710.98,1653.76L2709.89,1653.82C2709.83,1654.15 2702.98,1653.22 2700.92,1650.93Z" style="fill:rgb(57,0,117);fill-rule:nonzero;"/>
        <g id="bone">
            <path d="M2328.61,2586.71C2323.59,2586.71 2318.51,2586.34 2313.51,2585.61C2258.81,2577.62 2220.43,2528.87 2225.26,2474.09L1762.48,2406.48C1752.78,2454.81 1710.46,2489.66 1661.04,2489.66C1656.02,2489.66 1650.93,2489.29 1645.93,2488.55C1589.39,2480.29 1550.1,2427.57 1558.36,2371.02C1562.92,2339.8 1580.97,2312.94 1608.04,2296.89C1586.7,2273.76 1577.09,2242.86 1581.65,2211.65C1589.04,2161.1 1633.07,2122.98 1684.08,2122.98C1689.1,2122.98 1694.18,2123.35 1699.18,2124.08C1754.13,2132.11 1792.48,2181.06 1787.38,2236.07L2250.12,2303.68C2259.63,2255.08 2301.99,2220.03 2351.65,2220.03C2356.67,2220.03 2361.75,2220.41 2366.76,2221.14C2423.3,2229.4 2462.58,2282.12 2454.33,2338.67C2449.76,2369.89 2431.71,2396.75 2404.65,2412.8C2426,2435.93 2435.6,2466.83 2431.04,2498.05C2423.65,2548.59 2379.62,2586.71 2328.62,2586.71L2328.61,2586.71Z" style="fill:white;fill-rule:nonzero;"/>
            <path d="M1760.64,2388.12C1761.41,2388.12 1762.18,2388.17 1762.95,2388.29L2230.01,2456.53C2238.42,2457.76 2244.36,2465.42 2243.44,2473.88C2238.44,2519.82 2270.37,2561.05 2316.12,2567.73C2362.78,2574.55 2406.34,2542.12 2413.16,2495.43C2417.04,2468.87 2408.49,2442.58 2389.71,2423.31C2386.27,2419.78 2384.68,2414.86 2385.39,2409.99C2386.1,2405.12 2389.04,2400.86 2393.34,2398.46C2416.85,2385.37 2432.56,2362.62 2436.45,2336.05C2443.26,2289.37 2410.83,2245.84 2364.15,2239.02C2317.99,2232.28 2275.53,2262.99 2267.52,2308.94C2266.05,2317.38 2258.09,2323.1 2249.66,2321.87L1782.62,2253.64C1774.18,2252.4 1768.24,2244.69 1769.2,2236.21C1774.43,2190.07 1742.53,2148.68 1696.57,2141.96C1649.86,2135.13 1606.35,2167.57 1599.53,2214.26C1595.65,2240.82 1604.19,2267.11 1622.97,2286.39C1626.41,2289.91 1628.01,2294.83 1627.3,2299.7C1626.58,2304.57 1623.64,2308.83 1619.35,2311.23C1595.84,2324.33 1580.13,2347.07 1576.25,2373.63C1569.42,2420.32 1601.86,2463.85 1648.54,2470.67C1694.48,2477.4 1736.91,2446.85 1745.1,2401.14C1746.47,2393.51 1753.11,2388.12 1760.64,2388.12ZM2328.57,2600.26C2322.94,2600.26 2317.27,2599.86 2311.55,2599.02C2254.01,2590.62 2212.44,2542.32 2211.32,2485.75L1772.56,2421.65C1755.47,2475.83 1701.79,2510.41 1643.97,2501.96C1580.03,2492.62 1535.62,2433 1544.96,2369.06C1549.36,2338.95 1564.84,2312.42 1588.31,2294.01C1571.09,2269.65 1563.84,2239.8 1568.24,2209.69C1577.58,2145.75 1637.18,2101.32 1701.14,2110.67C1758.94,2119.11 1800.51,2167.62 1801.37,2224.42L2239.99,2288.5C2256.89,2234.02 2310.68,2199.25 2368.72,2207.73C2432.65,2217.07 2477.07,2276.69 2467.73,2340.63C2463.33,2370.75 2447.84,2397.27 2424.38,2415.68C2441.59,2440.04 2448.85,2469.89 2444.45,2500C2435.94,2558.22 2385.74,2600.26 2328.57,2600.26Z" style="fill:rgb(57,0,117);fill-rule:nonzero;"/>
            <path d="M2314.07,2582.54L2277.02,2570.42L2235.28,2522.92L2227.47,2467.23L1768.21,2405.03L1753.78,2426.6L1709.95,2474.7L1667.36,2487.18L1617.32,2477.56L1571.14,2433.06L1559.52,2385.91L1579.58,2325.48L1609.48,2272.42L1612.85,2273.88C1615.79,2278.3 1619.17,2282.48 1622.97,2286.39C1623.52,2286.95 1624.03,2287.55 1624.48,2288.18C1625.69,2292.21 1626.44,2296.87 1626.82,2301.88C1625.66,2305.82 1622.99,2309.2 1619.35,2311.23C1595.84,2324.33 1580.13,2347.07 1576.25,2373.63C1569.42,2420.32 1601.86,2463.85 1648.54,2470.67C1652.8,2471.3 1657.03,2471.6 1661.21,2471.6C1702.06,2471.6 1737.67,2442.61 1745.1,2401.14C1746.47,2393.51 1753.11,2388.12 1760.64,2388.12C1761.41,2388.12 1762.18,2388.17 1762.95,2388.29L2230.01,2456.53C2238.42,2457.76 2244.36,2465.42 2243.44,2473.88C2238.44,2519.82 2270.37,2561.05 2316.12,2567.73C2320.29,2568.34 2324.44,2568.64 2328.53,2568.64C2370.28,2568.64 2406.95,2537.95 2413.16,2495.43C2417.04,2468.87 2408.49,2442.58 2389.71,2423.31C2386.27,2419.78 2384.68,2414.86 2385.39,2409.99C2386.1,2405.12 2389.04,2400.86 2393.34,2398.46C2416.85,2385.37 2432.56,2362.62 2436.45,2336.05C2439.67,2313.94 2434.1,2292.54 2422.37,2275.41C2422.7,2269.05 2422.56,2265.22 2422.56,2265.22C2485.85,2349.48 2424.06,2394.74 2424.06,2394.74L2404.16,2415.67L2422.67,2431.6L2429.5,2474.29L2429.37,2495.94L2392.81,2558.08L2361.77,2581.4L2314.07,2582.54Z" style="fill:rgb(57,0,117);fill-rule:nonzero;"/>
            <path d="M1684.08,2120.72C1631.96,2120.72 1586.96,2159.67 1579.42,2211.32C1574.89,2242.31 1584.02,2272.99 1604.54,2296.38C1578.18,2312.92 1560.66,2339.71 1556.13,2370.7C1547.69,2428.47 1587.82,2482.35 1645.6,2490.79C1650.71,2491.54 1655.91,2491.91 1661.04,2491.91C1710.83,2491.91 1753.55,2457.31 1764.25,2409.02L2222.85,2476.02C2219.08,2531.13 2258,2579.78 2313.18,2587.85C2318.29,2588.59 2323.49,2588.97 2328.61,2588.97C2380.73,2588.97 2425.73,2550.02 2433.27,2498.37C2437.8,2467.39 2428.67,2436.7 2408.15,2413.31C2434.5,2396.77 2452.03,2369.99 2456.56,2339C2465,2281.22 2424.86,2227.34 2367.09,2218.9C2361.97,2218.15 2356.78,2217.78 2351.66,2217.78C2301.63,2217.78 2258.86,2252.58 2248.34,2301.14L1789.8,2234.14C1793.84,2178.81 1754.94,2129.94 1699.51,2121.84C1694.4,2121.1 1689.2,2120.72 1684.08,2120.72ZM1684.08,2125.23C1688.95,2125.23 1693.89,2125.59 1698.86,2126.31C1753.15,2134.25 1791.05,2183.86 1784.91,2237.99L2251.94,2306.23C2260.48,2257.26 2303.08,2222.29 2351.66,2222.29C2356.53,2222.29 2361.46,2222.65 2366.43,2223.37C2421.83,2231.47 2460.18,2282.94 2452.09,2338.34C2447.34,2370.83 2427.67,2397.44 2401.04,2412.27C2422.31,2434.1 2433.55,2465.23 2428.8,2497.72C2421.44,2548.15 2378.12,2584.46 2328.61,2584.46C2323.74,2584.46 2318.8,2584.1 2313.83,2583.38C2259.69,2575.47 2221.86,2526.12 2227.72,2472.17L1760.66,2403.93C1751.93,2452.65 1709.46,2487.4 1661.04,2487.4C1656.16,2487.4 1651.22,2487.04 1646.26,2486.32C1590.85,2478.22 1552.51,2426.75 1560.6,2371.35C1565.35,2338.86 1585.02,2312.25 1611.65,2297.42C1590.38,2275.59 1579.14,2244.46 1583.89,2211.97C1591.26,2161.54 1634.57,2125.23 1684.08,2125.23Z" style="fill:rgb(57,0,117);fill-rule:nonzero;"/>
            <path d="M2328.53,2568.64C2324.44,2568.64 2320.29,2568.34 2316.12,2567.73C2270.37,2561.05 2238.44,2519.82 2243.44,2473.88C2244.36,2465.42 2238.42,2457.76 2230.01,2456.53L1762.95,2388.29C1762.18,2388.17 1761.41,2388.12 1760.64,2388.12C1753.11,2388.12 1746.47,2393.51 1745.1,2401.14C1737.67,2442.61 1702.06,2471.6 1661.21,2471.6C1657.03,2471.6 1652.8,2471.3 1648.54,2470.67C1601.86,2463.85 1569.42,2420.32 1576.25,2373.63C1580.13,2347.07 1595.84,2324.33 1619.35,2311.23C1622.99,2309.2 1625.66,2305.82 1626.82,2301.88C1628.46,2323.35 1623.44,2351.35 1620.08,2365.04C1625.12,2398.29 1643.51,2413.42 1664.71,2413.42C1683.51,2413.42 1704.5,2401.52 1720.32,2379.8C1729.37,2373.5 1740.72,2346.11 1764.42,2346.11C1765.84,2346.11 1767.3,2346.21 1768.8,2346.42L2246.01,2410.58C2255.81,2411.9 2263.91,2418.87 2266.82,2428.33C2273.89,2451.25 2284.51,2464.81 2294.42,2472.82C2302.12,2479.05 2311.69,2482.28 2321.21,2482.28C2329.69,2482.28 2338.13,2479.72 2345.18,2474.43C2363.67,2460.54 2360.61,2437.11 2354.1,2418.82C2349.21,2405.05 2355.09,2389.96 2367.94,2383.01C2413.48,2358.35 2421.16,2299.22 2422.37,2275.41C2434.1,2292.54 2439.67,2313.94 2436.45,2336.05C2432.56,2362.62 2416.85,2385.37 2393.34,2398.46C2389.04,2400.86 2386.1,2405.12 2385.39,2409.99C2384.68,2414.86 2386.27,2419.78 2389.71,2423.31C2408.49,2442.58 2417.04,2468.87 2413.16,2495.43C2406.95,2537.95 2370.28,2568.64 2328.53,2568.64ZM1624.48,2288.18C1624.03,2287.55 1623.52,2286.95 1622.97,2286.39C1619.17,2282.48 1615.79,2278.3 1612.85,2273.88L1614.35,2274.52C1619.28,2276.65 1622.5,2281.59 1624.48,2288.18Z" style="fill:rgb(195,178,213);fill-rule:nonzero;"/>
        </g>
        <g id="nose">
            <path d="M1834.77,2206.91C1847.8,2268.58 1890.39,2318.78 1943.73,2317.24C2004.62,2315.48 2024.19,2269.15 2029.41,2251.72L2030.61,2251.82L2029.75,2251.72L2030.94,2251.89C2032.04,2270.06 2040.47,2319.64 2099.35,2335.29C2150.92,2349 2203.87,2309.88 2230.66,2252.84L2205.25,2162.33L1916.2,2107.66L1834.77,2206.91Z" style="fill:white;fill-rule:nonzero;"/>
            <path d="M1837.31,2206.38C1846.66,2216.29 1852.94,2225.71 1859.14,2234.88C1862.31,2239.4 1865.02,2244.01 1867.99,2248.42C1869.29,2250.74 1870.79,2252.91 1872.33,2255.03C1873.86,2257.15 1875.26,2259.39 1876.98,2261.33C1889.8,2277.69 1905.91,2290.3 1923.43,2295.57C1927.78,2297.03 1932.28,2297.76 1936.79,2298.27L1943.67,2298.56L1951.08,2298.18C1960.83,2297.27 1970.08,2294.87 1978.33,2290.64C1986.58,2286.44 1993.9,2280.43 1999.8,2272.82C2005.65,2265.25 2010.32,2256.18 2013.18,2246.85L2013.22,2246.75C2015.6,2238.98 2023.07,2234.17 2030.85,2234.84L2032.05,2234.94L2028.66,2268.64L2027.8,2268.55L2032.21,2234.96L2033.4,2235.13C2041.44,2236.31 2047.33,2242.97 2047.85,2250.76L2047.85,2250.88C2049.16,2270.58 2057.15,2289.83 2071.23,2302.07C2078.22,2308.32 2086.68,2313.08 2096.04,2316.49L2103.25,2318.71C2105.6,2319.23 2107.87,2319.59 2110.18,2320.02C2114.82,2320.51 2119.48,2320.73 2124.14,2320.16C2133.44,2319.19 2142.58,2316.33 2151.58,2312.41C2160.63,2308.58 2169.62,2303.57 2178.26,2297.46C2186.93,2291.39 2195.45,2284.49 2203.73,2276.81C2212.01,2269.11 2219.84,2260.63 2228.32,2251.73L2228.37,2251.68C2229.4,2250.6 2231.12,2250.55 2232.2,2251.59C2232.86,2252.21 2233.13,2253.11 2233.01,2253.94C2231.2,2266.36 2227.04,2278.32 2221.5,2289.82C2215.76,2301.19 2208.28,2311.88 2199.23,2321.46C2190.22,2331.06 2179.35,2339.38 2166.92,2345.44C2154.49,2351.45 2140.46,2355.01 2126.15,2355.41C2119,2355.7 2111.81,2355.02 2104.77,2353.86C2101.3,2353.06 2097.73,2352.42 2094.35,2351.54L2084.65,2348.39C2071.8,2343.76 2059.25,2336.84 2048.61,2327.29C2037.97,2317.81 2029.37,2305.91 2023.81,2293.07C2018.11,2280.21 2014.93,2266.78 2014.03,2252.91L2028.48,2268.66L2027.29,2268.48C2018.03,2267.12 2011.63,2258.52 2012.99,2249.26C2014.32,2240.18 2022.65,2233.85 2031.7,2234.89L2032.56,2234.99C2041.86,2236.07 2048.52,2244.48 2047.44,2253.77C2046.38,2262.89 2038.24,2269.46 2029.17,2268.7L2027.97,2268.6L2045.64,2256.58C2041.61,2269.88 2035.53,2282.28 2027.08,2293.54C2018.87,2304.92 2007.84,2314.69 1995.32,2321.76C1982.81,2328.88 1968.91,2333.04 1955.21,2334.87L1944.93,2335.83C1941.38,2335.95 1937.7,2335.77 1934.08,2335.7C1926.85,2335.14 1919.59,2334.04 1912.65,2331.95C1898.79,2327.76 1886.01,2320.87 1875.31,2312.06C1864.52,2303.33 1855.41,2293.1 1848.25,2281.92C1841.04,2270.82 1834.68,2259.23 1831.59,2246.55C1828.74,2233.86 1828.02,2220.63 1832.23,2207.45C1832.74,2205.88 1834.42,2205.01 1835.99,2205.51C1836.48,2205.67 1836.91,2205.95 1837.24,2206.3L1837.31,2206.38Z" style="fill:rgb(57,0,117);fill-rule:nonzero;"/>
            <path d="M2031.23,2267.24C2030.53,2267.24 2029.83,2267.19 2029.13,2267.1C2020.75,2265.95 2014.89,2258.23 2016.04,2249.85L2028.01,2162.32C2029.15,2153.93 2036.88,2148.07 2045.25,2149.22C2053.63,2150.37 2059.5,2158.09 2058.35,2166.47L2046.38,2254C2045.33,2261.67 2038.76,2267.24 2031.23,2267.24Z" style="fill:rgb(57,0,117);fill-rule:nonzero;"/>
            <path d="M2152.41,2164.25C2147.3,2199.06 2090.71,2238.44 2029.37,2229.43C1968.02,2220.42 1925.14,2166.44 1930.25,2131.64C1935.36,2096.84 1985.52,2101.21 2046.87,2110.22C2108.22,2119.22 2157.52,2129.45 2152.41,2164.25Z" style="fill:rgb(57,0,117);fill-rule:nonzero;"/>
            <path d="M2090.82,2145.03C2089.7,2152.66 2066.61,2159.73 2039.98,2155.82C2013.35,2151.91 1993.27,2138.51 1994.39,2130.87C1995.51,2123.24 2017.19,2125.77 2043.82,2129.68C2070.45,2133.59 2091.94,2137.4 2090.82,2145.03Z" style="fill:white;fill-rule:nonzero;"/>
            <path d="M2007.64,2127.97C2001.28,2127.97 1996.77,2128.81 1996.42,2131.17C1995.63,2136.59 2013.6,2149.88 2040.28,2153.79C2052.29,2155.56 2064.43,2155.19 2074.49,2152.76C2083.89,2150.49 2088.45,2147.09 2088.79,2144.73C2089.71,2138.49 2059.66,2134.08 2043.52,2131.7C2033.49,2130.23 2018.09,2127.97 2007.64,2127.97ZM2055.19,2158.99C2050.1,2158.99 2044.87,2158.61 2039.68,2157.85C2014.33,2154.13 1990.89,2140.62 1992.36,2130.58C1993.77,2121.01 2014.7,2123.33 2044.12,2127.65C2073.54,2131.97 2094.25,2135.76 2092.85,2145.33C2092.15,2150.08 2085.81,2154.24 2075.45,2156.75C2069.28,2158.24 2062.37,2158.99 2055.19,2158.99Z" style="fill:rgb(57,0,117);fill-rule:nonzero;"/>
            <path d="M2118.28,2320.5C2115.58,2320.5 2112.88,2320.31 2110.18,2320.02C2107.87,2319.59 2105.6,2319.23 2103.25,2318.71L2096.04,2316.49C2086.68,2313.08 2078.22,2308.32 2071.23,2302.07C2057.15,2289.83 2049.16,2270.58 2047.85,2250.88L2047.85,2250.76C2047.77,2249.61 2047.58,2248.49 2047.28,2247.41L2047.48,2245.95L2050.2,2246.35C2059.75,2263.12 2076.6,2279.7 2106.35,2287.6C2117.27,2290.51 2129.99,2292.04 2142.89,2292.04C2164.41,2292.04 2186.47,2287.8 2201.67,2278.7C2194.04,2285.62 2186.22,2291.89 2178.26,2297.46C2169.62,2303.57 2160.63,2308.58 2151.58,2312.41C2142.58,2316.33 2133.44,2319.19 2124.14,2320.16C2122.19,2320.4 2120.24,2320.5 2118.28,2320.5Z" style="fill:rgb(195,178,213);fill-rule:nonzero;"/>
            <path d="M2129.23,2339.28C2119.42,2339.28 2109.37,2337.95 2099.35,2335.28C2053,2322.96 2037.92,2289.63 2033.05,2267.13C2039.8,2266.31 2045.41,2261.05 2046.38,2254L2047.28,2247.41C2047.58,2248.49 2047.77,2249.61 2047.85,2250.76L2047.85,2250.88C2049.16,2270.58 2057.15,2289.83 2071.23,2302.07C2078.22,2308.32 2086.68,2313.08 2096.04,2316.49L2103.25,2318.71C2105.6,2319.23 2107.87,2319.59 2110.18,2320.02C2112.88,2320.31 2115.58,2320.5 2118.28,2320.5C2120.24,2320.5 2122.19,2320.4 2124.14,2320.16C2133.44,2319.19 2142.58,2316.33 2151.58,2312.41C2160.63,2308.58 2169.62,2303.57 2178.26,2297.46C2186.22,2291.89 2194.04,2285.62 2201.67,2278.7C2206.08,2276.06 2209.91,2273.02 2212.98,2269.55L2217.8,2270.59C2206.34,2316.32 2169.93,2339.28 2129.23,2339.28Z" style="fill:rgb(57,0,117);fill-rule:nonzero;"/>
            <path d="M1943.67,2298.56L1936.79,2298.27C1932.28,2297.76 1927.78,2297.03 1923.43,2295.57C1905.91,2290.3 1889.8,2277.69 1876.98,2261.33C1875.26,2259.39 1873.86,2257.15 1872.33,2255.03C1870.79,2252.91 1869.29,2250.74 1867.99,2248.42C1865.02,2244.01 1862.31,2239.4 1859.14,2234.88C1858.67,2234.19 1858.2,2233.49 1857.73,2232.79C1879.23,2251.44 1918.98,2263.38 1947.24,2264.24C1948.54,2264.28 1949.82,2264.3 1951.09,2264.3C1979.81,2264.3 1999.55,2253.64 2012.93,2240.88L2016.02,2241.33C2014.8,2242.91 2013.83,2244.73 2013.22,2246.75L2013.18,2246.85C2010.32,2256.18 2005.65,2265.25 1999.8,2272.82C1993.9,2280.43 1986.58,2286.44 1978.33,2290.64C1970.08,2294.87 1960.83,2297.27 1951.08,2298.18L1943.67,2298.56Z" style="fill:rgb(195,178,213);fill-rule:nonzero;"/>
            <path d="M1944.04,2311.98C1942.79,2311.98 1941.52,2311.96 1940.24,2311.92C1886.93,2310.26 1835.28,2274.24 1838.02,2215.8L1845.25,2217.11C1847.85,2222.73 1852.18,2227.98 1857.73,2232.79C1858.2,2233.49 1858.67,2234.19 1859.14,2234.88C1862.31,2239.4 1865.02,2244.01 1867.99,2248.42C1869.29,2250.74 1870.79,2252.91 1872.33,2255.03C1873.86,2257.15 1875.26,2259.39 1876.98,2261.33C1889.8,2277.69 1905.91,2290.3 1923.43,2295.57C1927.78,2297.03 1932.28,2297.76 1936.79,2298.27L1943.67,2298.56L1951.08,2298.18C1960.83,2297.27 1970.08,2294.87 1978.33,2290.64C1986.58,2286.44 1993.9,2280.43 1999.8,2272.82C2005.65,2265.25 2010.32,2256.18 2013.18,2246.85L2013.22,2246.75C2013.83,2244.73 2014.8,2242.91 2016.02,2241.33L2017.18,2241.5L2016.04,2249.85C2015.16,2256.22 2018.35,2262.22 2023.61,2265.23C2012.91,2284.88 1989.85,2311.98 1944.04,2311.98Z" style="fill:rgb(57,0,117);fill-rule:nonzero;"/>
            <path d="M2033.05,2267.13C2031.74,2261.05 2031.17,2255.76 2030.92,2251.9L2029.74,2251.72C2028.45,2255.25 2026.47,2259.97 2023.61,2265.23C2018.35,2262.22 2015.16,2256.22 2016.04,2249.85L2017.18,2241.5L2047.48,2245.95L2047.28,2247.41L2046.38,2254C2045.41,2261.05 2039.8,2266.31 2033.05,2267.13Z" style="fill:rgb(57,0,117);fill-rule:nonzero;"/>
        </g>
        <g transform="matrix(1,0,0,1,0,1)">
            <path d="M1856.86,1925.58C1838.62,2000.67 1780.94,2051.11 1728.01,2038.26C1675.09,2025.4 1646.97,1954.11 1665.21,1879.03C1683.45,1803.94 1741.14,1753.49 1794.06,1766.35C1846.98,1779.21 1875.1,1850.5 1856.86,1925.58Z" style="fill:rgb(57,0,117);fill-rule:nonzero;"/>
        </g>
        <g transform="matrix(1,0,0,1,0,3)">
            <path d="M1819.67,1893.87C1813.54,1919.08 1795.62,1936.37 1779.62,1932.49C1763.63,1928.6 1755.64,1905.01 1761.76,1879.8C1767.89,1854.59 1785.81,1837.3 1801.8,1841.18C1817.79,1845.07 1825.79,1868.65 1819.67,1893.87Z" style="fill:white;fill-rule:nonzero;"/>
        </g>
        <path d="M2481.97,1962.08C2467.35,1964.48 2452.42,1967.58 2438.45,1971.55C2424.38,1975.55 2410.93,1980.53 2398.24,1986.49C2391.8,1989.31 2385.84,1992.88 2379.75,1996.15L2371.09,2001.78C2369.68,2002.75 2368.15,2003.56 2366.78,2004.59L2362.71,2007.73C2351.47,2015.62 2342.07,2025.65 2332.76,2035.83L2311.09,2004.06C2312.48,2003.66 2313.33,2003.48 2314.27,2003.26C2315.23,2003.02 2316.13,2002.83 2317,2002.67C2318.77,2002.34 2320.55,2002 2322.26,2001.78C2325.74,2001.22 2329.16,2000.9 2332.59,2000.56C2339.42,1999.95 2346.25,1999.94 2353.03,2000.2C2366.6,2000.77 2380.05,2003.13 2392.91,2007.24C2405.72,2011.4 2418.09,2016.91 2429,2024.5C2440.22,2031.51 2449.73,2040.8 2458.14,2050.43C2460.66,2053.32 2460.36,2057.7 2457.47,2060.22C2455.35,2062.08 2452.4,2062.4 2450,2061.29L2449.24,2060.93C2443.78,2058.4 2438.83,2055.39 2433.53,2053.08C2428.18,2050.86 2423.11,2048.38 2417.7,2046.7C2407.12,2042.89 2396.31,2040.4 2385.51,2038.94C2374.73,2037.32 2363.84,2037 2353.1,2037.66C2347.72,2037.96 2342.4,2038.64 2337.15,2039.41C2334.55,2039.87 2331.94,2040.29 2329.45,2040.89C2328.16,2041.15 2326.97,2041.48 2325.77,2041.79C2325.16,2041.94 2324.57,2042.08 2324.06,2042.24L2322.83,2042.6L2322.37,2042.74C2311.74,2045.86 2300.59,2039.78 2297.47,2029.15C2295.55,2022.61 2297.19,2015.77 2301.16,2010.83C2312.06,1997.45 2323.94,1984.42 2338.37,1974.57C2345.17,1969.08 2353.02,1965.22 2360.48,1960.84C2368.37,1957.3 2376.12,1953.46 2384.37,1951.06C2400.61,1945.67 2417.43,1942.64 2434.14,1942.13C2450.94,1941.73 2467.3,1943.27 2483.66,1948.43C2487.34,1949.58 2489.38,1953.5 2488.22,1957.18C2487.4,1959.77 2485.21,1961.55 2482.7,1961.97L2481.97,1962.08Z" style="fill:rgb(57,0,117);fill-rule:nonzero;"/>
    </g>
</svg>
